<svg width="24" height="24" viewBox="0 0 24 24" fill="none" xmlns="http://www.w3.org/2000/svg">
<path fill-rule="evenodd" clip-rule="evenodd" d="M13.8728 16.5751L6.29322 20.3649C5.53043 20.7463 4.60918 20.5968 4.00615 19.9937V19.9937C3.40312 19.3907 3.25362 18.4694 3.63501 17.7067L7.4248 10.1271C7.56854 9.83954 7.84175 9.63864 8.15907 9.58714C8.47638 9.53565 8.7991 9.63984 9.0264 9.86716L14.1327 14.9735C14.36 15.2008 14.4642 15.5235 14.4127 15.8408C14.3612 16.1581 14.1603 16.4313 13.8728 16.5751Z" stroke="#075A5A" stroke-width="1.5" stroke-linecap="round" stroke-linejoin="round"/>
<path d="M5 3V3.5" stroke="#075A5A" stroke-width="1.5" stroke-linecap="round" stroke-linejoin="round"/>
<path d="M5 7V6.5" stroke="#075A5A" stroke-width="1.5" stroke-linecap="round" stroke-linejoin="round"/>
<path d="M7 5H6.5" stroke="#075A5A" stroke-width="1.5" stroke-linecap="round" stroke-linejoin="round"/>
<path d="M3 5H3.5" stroke="#075A5A" stroke-width="1.5" stroke-linecap="round" stroke-linejoin="round"/>
<path d="M12 3C12.5064 3.25322 12.8797 3.7117 13.025 4.25892C13.1704 4.80614 13.0737 5.38942 12.7596 5.86052L12 7" stroke="#075A5A" stroke-width="1.5" stroke-linecap="round" stroke-linejoin="round"/>
<path d="M17 12.0013L18.1395 11.2417C18.6106 10.9276 19.1939 10.831 19.7411 10.9763C20.2883 11.1216 20.7468 11.4949 21 12.0013" stroke="#075A5A" stroke-width="1.5" stroke-linecap="round" stroke-linejoin="round"/>
<path d="M19 17V17.5" stroke="#075A5A" stroke-width="1.5" stroke-linecap="round" stroke-linejoin="round"/>
<path d="M19 21V20.5" stroke="#075A5A" stroke-width="1.5" stroke-linecap="round" stroke-linejoin="round"/>
<path d="M21 19H20.5" stroke="#075A5A" stroke-width="1.5" stroke-linecap="round" stroke-linejoin="round"/>
<path d="M17 19H17.5" stroke="#075A5A" stroke-width="1.5" stroke-linecap="round" stroke-linejoin="round"/>
<path d="M19 3V3.5" stroke="#075A5A" stroke-width="1.5" stroke-linecap="round" stroke-linejoin="round"/>
<path d="M19 7V6.5" stroke="#075A5A" stroke-width="1.5" stroke-linecap="round" stroke-linejoin="round"/>
<path d="M21 5H20.5" stroke="#075A5A" stroke-width="1.5" stroke-linecap="round" stroke-linejoin="round"/>
<path d="M17 5H17.5" stroke="#075A5A" stroke-width="1.5" stroke-linecap="round" stroke-linejoin="round"/>
<path d="M14 10L15 9" stroke="#075A5A" stroke-width="1.5" stroke-linecap="round" stroke-linejoin="round"/>
</svg>
