<svg width="24" height="24" viewBox="0 0 24 24" fill="none" xmlns="http://www.w3.org/2000/svg">
<path d="M12 12.33V9" stroke="#3F6870" stroke-width="1.5" stroke-linecap="round" stroke-linejoin="round"/>
<path d="M11.999 14.833C11.907 14.833 11.832 14.908 11.833 15C11.833 15.092 11.908 15.167 12 15.167C12.092 15.167 12.167 15.092 12.167 15C12.167 14.908 12.092 14.833 11.999 14.833" stroke="#3F6870" stroke-width="1.5" stroke-linecap="round" stroke-linejoin="round"/>
<path d="M17.654 17.6554C16.206 19.1024 14.209 20.0014 12 20.0014C7.582 20.0014 4 16.4194 4 12.0014C4 11.3934 4.074 10.8034 4.202 10.2344" stroke="#3F6870" stroke-width="1.5" stroke-linecap="round" stroke-linejoin="round"/>
<path d="M2 12L4 10L6 12" stroke="#3F6870" stroke-width="1.5" stroke-linecap="round" stroke-linejoin="round"/>
<path d="M22 12L20 14L18 12" stroke="#3F6870" stroke-width="1.5" stroke-linecap="round" stroke-linejoin="round"/>
<path d="M6.34302 6.343C7.79102 4.896 9.79102 4 12 4C16.418 4 20 7.582 20 12C20 12.608 19.926 13.198 19.798 13.767" stroke="#3F6870" stroke-width="1.5" stroke-linecap="round" stroke-linejoin="round"/>
</svg>
