<svg width="32" height="32" viewBox="0 0 32 32" fill="none" xmlns="http://www.w3.org/2000/svg"><g clip-path="url(#clip0_466_1481)"><path fill-rule="evenodd" clip-rule="evenodd" d="M25.1879 2.89648C25.0902 2.89648 24.9994 2.94681 24.9476 3.02965L12.771 22.5122C12.712 22.6065 12.7799 22.7289 12.8911 22.7289H19.5615C19.6592 22.7289 19.75 22.6786 19.8018 22.5958L31.9784 3.11322C32.0374 3.01887 31.9695 2.89648 31.8583 2.89648H25.1879ZM12.4386 9.27098C12.3409 9.27098 12.2501 9.3213 12.1984 9.40414L0.0217591 28.8867C-0.0372113 28.981 0.0306218 29.1034 0.141887 29.1034H6.81229C6.90997 29.1034 7.00077 29.0531 7.05254 28.9703L19.2291 9.48772C19.2881 9.39337 19.2203 9.27098 19.109 9.27098H12.4386Z" fill="url(#paint0_linear_466_1481)"/></g><defs><linearGradient id="paint0_linear_466_1481" x1="31.972" y1="2.89648" x2="12.6357" y2="22.7287" gradientUnits="userSpaceOnUse"><stop stop-color="#8235FF"/><stop offset="1" stop-color="#4330F2"/></linearGradient><clipPath id="clip0_466_1481"><rect width="32" height="32" fill="white"/></clipPath></defs></svg>