<svg width="26" height="26" viewBox="0 0 26 26" fill="none" xmlns="http://www.w3.org/2000/svg">
<path d="M8.99818 22.0041H5.99693C4.8919 22.0041 3.99609 21.1083 3.99609 20.0032V5.99742C3.99609 4.89239 4.8919 3.99658 5.99693 3.99658H17.0015C18.1065 3.99658 19.0023 4.89239 19.0023 5.99742V8.99867" stroke="#3F6870" stroke-width="1.5" stroke-linecap="round" stroke-linejoin="round"/>
<path d="M17.7735 16.1616L21.4571 19.2789C21.899 19.6506 22.0969 20.2377 21.9701 20.8011C21.8434 21.3645 21.4131 21.8103 20.8545 21.9568C20.296 22.1034 19.7022 21.9264 19.3152 21.4978L16.0498 17.9023" stroke="#3F6870" stroke-width="1.5" stroke-linecap="round" stroke-linejoin="round"/>
<path d="M7.99805 8.99826H14.0005" stroke="#3F6870" stroke-width="1.5" stroke-linecap="round" stroke-linejoin="round"/>
<path d="M7.99805 13.0002H9.99888" stroke="#3F6870" stroke-width="1.5" stroke-linecap="round" stroke-linejoin="round"/>
<path fill-rule="evenodd" clip-rule="evenodd" d="M13.9246 14.8617L12.459 16.0292C12.1884 16.2463 12.0229 16.5683 12.0038 16.9148C11.9847 17.2612 12.1139 17.5994 12.359 17.845L13.4745 18.9654C13.7175 19.2096 14.0533 19.3383 14.3973 19.3192C14.7413 19.3001 15.0607 19.135 15.2752 18.8654L16.4517 17.4018C16.7315 17.0541 17.0489 16.7384 17.3981 16.4604L18.8637 15.2919C19.1343 15.0749 19.2998 14.7531 19.3189 14.4069C19.338 14.0606 19.2088 13.7225 18.9637 13.4771L17.8523 12.3557C17.6092 12.1115 17.2735 11.9828 16.9295 12.0019C16.5855 12.021 16.266 12.1861 16.0515 12.4557L14.871 13.9203C14.5909 14.2678 14.2736 14.5835 13.9246 14.8617V14.8617Z" stroke="#3F6870" stroke-width="1.5" stroke-linecap="round" stroke-linejoin="round"/>
<path d="M14.9237 21.9841H12.9229" stroke="#3F6870" stroke-width="1.5" stroke-linecap="round" stroke-linejoin="round"/>
</svg>
