<svg width="24" height="24" viewBox="0 0 24 24" fill="none" xmlns="http://www.w3.org/2000/svg">
<rect x="0.6" y="0.6" width="22.8" height="22.8" rx="11.4" fill="white"/>
<rect x="0.6" y="0.6" width="22.8" height="22.8" rx="11.4" stroke="#B6DFDF" stroke-width="1.2"/>
<g clip-path="url(#clip0_3249_21043)">
<path d="M11.998 4L11.8906 4.36462V14.9441L11.998 15.0512L16.9087 12.1484L11.998 4Z" fill="#343434"/>
<path d="M11.9968 4L7.08594 12.1484L11.9968 15.0512V9.91619V4Z" fill="#8C8C8C"/>
<path d="M11.998 15.9794L11.9375 16.0532V19.8218L11.998 19.9984L16.9118 13.0781L11.998 15.9794Z" fill="#3C3C3B"/>
<path d="M11.9968 19.9984V15.9794L7.08594 13.0781L11.9968 19.9984Z" fill="#8C8C8C"/>
<path d="M12 15.0529L16.9108 12.1501L12 9.91797V15.0529Z" fill="#141414"/>
<path d="M7.08594 12.1501L11.9968 15.0529V9.91797L7.08594 12.1501Z" fill="#393939"/>
</g>
<defs>
<clipPath id="clip0_3249_21043">
<rect width="16" height="16" fill="white" transform="translate(4 4)"/>
</clipPath>
</defs>
</svg>
