<svg width="120" height="120" viewBox="0 0 120 120" fill="none" xmlns="http://www.w3.org/2000/svg">
<path d="M102.074 17.6537C92.2764 7.7773 79.3451 1.63385 65.5094 0.282488C51.6738 -1.06888 37.8008 2.45653 26.2824 10.2509C14.7639 18.0453 6.32172 29.6202 2.41127 42.9801C-1.49918 56.34 -0.632845 70.6477 4.86092 83.4365C5.43351 84.6251 5.62139 85.9631 5.39834 87.2638L0.143574 112.56C-0.0588763 113.53 -0.0175355 114.535 0.263882 115.485C0.5453 116.435 1.05797 117.3 1.75583 118.002C2.32791 118.571 3.00906 119.018 3.75822 119.316C4.50738 119.614 5.30905 119.757 6.1149 119.737H7.30916L32.8664 114.594C34.1654 114.437 35.4826 114.623 36.6881 115.132C49.4578 120.634 63.7441 121.501 77.084 117.585C90.424 113.669 101.982 105.214 109.764 93.6784C117.547 82.1427 121.067 68.249 119.718 54.3927C118.369 40.5363 112.234 27.5856 102.373 17.7733L102.074 17.6537Z" fill="#096162"/>
<path d="M68.2844 33.5428L59.1711 38.6984C55.877 40.5619 55.5839 45.1955 58.617 47.4591L67.9219 54.4035C69.8171 55.818 69.6346 58.713 67.5767 59.8783L59.1802 64.6329C55.8841 66.4993 55.5958 71.1381 58.6355 73.3982L67.4945 79.985C68.4137 80.6685 68.9554 81.7463 68.9554 82.8914V83.1627C68.9554 83.9962 69.8558 84.5199 70.5803 84.1066L79.7416 78.8859C83.0372 77.0074 83.3073 72.3586 80.2515 70.1112L70.953 63.2734C69.0441 61.8695 69.2114 58.9661 71.2689 57.7909L79.7583 52.9417C83.0487 51.0621 83.3183 46.4193 80.2664 44.172L71.3805 37.6274C70.4535 36.9448 69.9063 35.8622 69.9063 34.711V34.4886C69.9063 33.6563 69.0089 33.133 68.2844 33.5428Z" fill="url(#paint0_linear_9089_511913)"/>
<path d="M48.301 41.727L39.1877 46.8825C35.8936 48.746 35.6005 53.3795 38.6336 55.6432L47.9385 62.5876C49.8337 64.002 49.6512 66.8971 47.5933 68.0623L39.1968 72.8169C35.9007 74.6834 35.6124 79.3223 38.6521 81.582L47.5111 88.1691C48.4303 88.8526 48.972 89.9304 48.972 91.0755V91.3468C48.972 92.1803 49.8724 92.7035 50.5969 92.2907L59.758 87.07C63.0538 85.1914 63.324 80.5427 60.2679 78.295L50.9696 71.4574C49.0607 70.0537 49.228 67.1502 51.2856 65.9749L59.7748 61.1258C63.0655 59.2462 63.3347 54.6033 60.2833 52.3561L51.3971 45.8115C50.4701 45.1289 49.9229 44.0463 49.9229 42.8951V42.6727C49.9229 41.8404 49.0255 41.3171 48.301 41.727Z" fill="url(#paint1_linear_9089_511913)"/>
<path d="M25.5333 60.786C25.5333 56.6644 25.5213 52.5427 25.5394 48.4211C25.5394 47.3178 25.3162 46.3222 24.5682 45.5169C23.9891 44.8955 24.0253 44.3248 24.3691 43.5385C25.4971 40.9704 26.8303 38.5228 28.1996 36.0942C28.3746 35.7835 28.5676 35.6123 28.9054 35.6123C29.1286 35.6123 29.3578 35.5933 29.581 35.606C30.7996 35.6694 31.7768 35.1494 32.5791 34.2236C33.2728 33.4247 33.9303 32.5877 34.6482 31.8077C39.8963 26.1072 46.1216 22.2011 53.5293 20.4637C57.1186 19.6203 60.7379 19.4745 64.3875 19.9818C66.8125 20.3179 69.1711 20.9012 71.4634 21.7953C74.3288 22.9113 76.995 24.4205 79.5226 26.2086C82.2251 28.1236 84.644 30.3746 86.7614 32.9808C87.1836 33.5008 87.6541 33.9827 88.1186 34.4646C88.8908 35.2762 89.8439 35.6377 90.9237 35.5869C91.5933 35.5552 92.0336 35.7264 92.3714 36.4049C93.5598 38.7891 94.8205 41.129 96.027 43.5005C96.4674 44.3629 96.4432 44.4136 95.7917 45.0667C94.905 45.9544 94.4465 47.0324 94.4284 48.3069C94.4043 49.7844 94.4103 51.2682 94.4103 52.7456C94.3983 59.2705 94.4103 65.7954 94.3681 72.3202C94.3561 74.2035 94.8085 75.8141 96.3226 76.9555C96.7388 77.2725 96.7147 77.653 96.5277 78.0652C95.7314 79.828 94.9834 81.6161 94.1148 83.3409C92.3051 86.9172 89.8499 89.9862 87.063 92.7636C85.1025 94.7102 82.9067 96.3399 80.5903 97.7856C78.3825 99.168 76.0661 100.316 73.623 101.146C71.9339 101.723 70.1846 102.129 68.4653 102.605C68.1215 102.7 67.8983 102.548 67.7053 102.256C67.4519 101.869 67.1865 101.47 66.8728 101.14C65.4793 99.6689 63.7722 99.3075 61.9384 99.8655C60.1649 100.404 59.0851 101.742 58.5965 103.619C57.8847 106.34 59.6883 109.295 62.2521 109.865C65.039 110.48 67.3373 108.933 68.0732 106.397C68.2904 105.648 68.6222 105.312 69.3883 105.16C76.0962 103.867 82.1165 100.962 87.3405 96.3462C91.3399 92.8143 94.6396 88.6419 97.0103 83.715C97.7703 82.1424 98.4218 80.5064 99.0432 78.8705C99.3207 78.1349 99.6585 77.5769 100.413 77.3486C101.806 76.9238 102.554 75.8205 102.958 74.4508C103.139 73.8357 103.181 73.1572 103.175 72.5041C103.175 71.9081 103.332 71.5213 103.821 71.2042C106.324 69.5809 108.194 67.3743 108.984 64.356C110.016 60.4246 109.551 56.7024 107.12 53.4114C106.21 52.1749 105.13 51.097 103.797 50.3487C103.242 50.038 103.145 49.5625 103.175 48.9601C103.26 47.4953 102.886 46.1827 101.86 45.1428C101.559 44.8384 101.197 44.5848 100.829 44.3692C100.455 44.1536 100.207 43.8683 100.051 43.4498C98.8019 40.0954 97.1792 36.9439 95.2669 33.9573C94.9231 33.4183 94.7663 32.9047 94.9352 32.2516C95.3273 30.7805 94.9714 29.4552 94.0243 28.3519C92.661 26.7603 91.3097 25.156 89.8318 23.6913C86.5683 20.4447 82.9188 17.7244 78.8892 15.6255C74.4192 13.2984 69.6959 11.7702 64.7313 11.2439C58.7654 10.6098 52.902 11.1932 47.1894 13.216C43.021 14.6934 39.1242 16.6908 35.5651 19.4365C32.5972 21.7256 29.7922 24.1985 27.3973 27.1471C26.7157 27.9841 25.9616 28.7767 25.6238 29.8737C25.3886 30.6219 25.286 31.3575 25.5152 32.1248C25.7324 32.8349 25.5695 33.4247 25.1593 34.0461C23.2652 36.8868 21.745 39.9495 20.5024 43.1644C20.3033 43.6844 19.9896 43.9761 19.4829 44.2234C17.9688 44.9589 16.9252 46.1954 16.9675 48.0153C16.9976 49.4103 16.69 50.4185 15.3991 50.9321C11.5927 53.8807 9.96996 57.8565 10.6516 62.739C11.1583 66.3851 13.0766 69.1751 16.0807 71.0837C16.5874 71.4071 16.889 71.7369 16.8468 72.3836C16.8287 72.7261 16.9132 73.0685 16.9071 73.4109C16.8408 75.459 18.56 77.6213 21.0151 77.7545C23.2652 77.8749 25.5997 75.9092 25.5695 73.3919C25.5213 69.1941 25.5575 64.9901 25.5575 60.7923H25.5514L25.5333 60.786Z" fill="#CCE9E9"/>
<defs>
<linearGradient id="paint0_linear_9089_511913" x1="59.4635" y1="33.4004" x2="59.4635" y2="92.4366" gradientUnits="userSpaceOnUse">
<stop stop-color="#D8F0F0"/>
<stop offset="1" stop-color="#C5E4E4"/>
</linearGradient>
<linearGradient id="paint1_linear_9089_511913" x1="59.4635" y1="33.3988" x2="59.4635" y2="92.435" gradientUnits="userSpaceOnUse">
<stop stop-color="#D8F0F0"/>
<stop offset="1" stop-color="#C5E4E4"/>
</linearGradient>
</defs>
</svg>
