<svg xmlns="http://www.w3.org/2000/svg" width="16" height="16" fill-opacity=".66" fill="none"><path fill="#fff" fill-rule="evenodd" d="M4.03 4.03c.03-.67.1-1.15.27-1.56A4 4 0 0 1 6.47.3C7.2 0 8.14 0 10 0c1.86 0 2.8 0 3.53.3a4 4 0 0 1 2.17 2.17c.3.73.3 1.67.3 3.53 0 1.86 0 2.8-.3 3.53a4 4 0 0 1-2.17 2.17c-.41.17-.89.24-1.56.27-.03.67-.1 1.15-.27 1.56a4 4 0 0 1-2.17 2.17C8.8 16 7.86 16 6 16c-1.86 0-2.8 0-3.53-.3A4 4 0 0 1 .3 13.53C0 12.8 0 11.86 0 10c0-1.86 0-2.8.3-3.53A4 4 0 0 1 2.47 4.3c.41-.17.89-.24 1.56-.27ZM10 10.5c-.95 0-1.6 0-2.09-.03-.48-.04-.71-.1-.87-.16A2.5 2.5 0 0 1 5.7 8.96a2.76 2.76 0 0 1-.16-.87C5.5 7.59 5.5 6.95 5.5 6s0-1.6.03-2.09c.04-.48.1-.71.16-.87A2.5 2.5 0 0 1 7.04 1.7c.16-.06.4-.12.87-.16.5-.03 1.14-.03 2.09-.03s1.6 0 2.09.03c.48.04.71.1.87.16.6.25 1.1.74 1.35 1.35.06.16.12.4.16.87.03.5.03 1.14.03 2.09s0 1.6-.03 2.09c-.04.48-.1.71-.16.87a2.5 2.5 0 0 1-1.35 1.35c-.16.06-.4.12-.87.16-.5.03-1.14.03-2.09.03ZM4 5.53h-.09c-.48.04-.71.1-.87.16A2.5 2.5 0 0 0 1.7 7.04c-.06.16-.12.4-.16.87-.03.5-.03 1.14-.03 2.09s0 1.6.03 2.09c.04.48.1.71.16.87.25.6.74 1.1 1.35 1.35.16.06.4.12.87.16.5.03 1.14.03 2.09.03s1.6 0 2.09-.03c.48-.04.71-.1.87-.16a2.5 2.5 0 0 0 1.35-1.35 2.76 2.76 0 0 0 .16-.96H10c-1.86 0-2.8 0-3.53-.3A4 4 0 0 1 4.3 9.53C4 8.8 4 7.86 4 6v-.47Z" clip-rule="evenodd"/></svg>
