<svg width="146" height="24" viewBox="0 0 146 24" fill="none" xmlns="http://www.w3.org/2000/svg">
  <path fill-rule="evenodd" clip-rule="evenodd" d="M29.4667 20.5H34C34 20.3104 33.9969 20.1215 33.9907 19.9333H30.4541L33.9538 19.2372C33.9244 18.8373 33.8813 18.4413 33.8247 18.0496L30.507 18.7095L33.7145 17.3809C33.6371 16.9638 33.5446 16.5521 33.4374 16.1463L30.2984 17.4465L33.2458 15.4772C33.1129 15.0468 32.9634 14.6238 32.798 14.2089L29.8154 16.2018L32.5029 13.5142C32.3059 13.0776 32.091 12.6508 31.859 12.2348L29.0593 15.0346L31.423 11.497C31.153 11.0653 30.8642 10.6467 30.5576 10.2422L28.043 14.0055L29.9265 9.45843C29.5762 9.04867 29.2067 8.65577 28.8194 8.28111L26.8981 12.9197C28.5092 15.0202 29.4667 17.6483 29.4667 20.5ZM4.53333 20.5C4.53333 20.1566 4.54722 19.8165 4.57445 19.4801H0.0300911C0.0101247 19.8175 0 20.1576 0 20.5H4.53333ZM4.87335 17.596L0.423812 16.711C0.572293 16.0587 0.758288 15.4207 0.979407 14.7993L5.4922 15.6969C5.23732 16.3069 5.02952 16.9415 4.87335 17.596ZM6.357 14.0047L2.1303 12.2539C2.448 11.6823 2.7977 11.1309 3.177 10.6021L7.52157 12.4017C7.0927 12.9031 6.70294 13.4391 6.357 14.0047ZM8.80809 11.1024L4.9404 8.51809C5.39387 8.0617 5.87307 7.63091 6.37565 7.22807L10.4036 9.91948C9.84003 10.2716 9.3066 10.6675 8.80809 11.1024ZM11.896 9.12268L8.53016 5.75689C9.08025 5.44018 9.64974 5.15338 10.2364 4.89869L13.7886 8.45087C13.1351 8.62461 12.5026 8.85009 11.896 9.12268ZM15.2506 8.15511L12.5358 4.0922C13.1399 3.92822 13.7574 3.79672 14.3863 3.69968L17.2841 8.03651C17.1896 8.03439 17.0949 8.03333 17 8.03333C16.4063 8.03333 15.8222 8.07484 15.2506 8.15511ZM18.5091 8.12375L16.5959 3.50471C16.7302 3.50158 16.8649 3.5 17 3.5C17.4917 3.5 17.9785 3.52087 18.4596 3.56178L20.5205 8.53736C19.8705 8.34638 19.1985 8.20693 18.5091 8.12375ZM21.3966 8.83075L20.4041 3.8409C21.0052 3.96307 21.5948 4.11697 22.1711 4.30077L23.2469 9.70899C22.6589 9.36788 22.0405 9.07344 21.3966 8.83075ZM23.7623 10.0249V4.89811C24.3065 5.13433 24.836 5.3982 25.3489 5.68794V11.2417C24.8544 10.7954 24.3238 10.3882 23.7623 10.0249ZM25.5755 11.4513L26.5707 6.44803C27.0399 6.76825 27.4923 7.11137 27.9262 7.47576L26.8546 12.8633C26.4644 12.3605 26.0367 11.8885 25.5755 11.4513Z" fill="#D5D931"/>
  <path fill-rule="evenodd" clip-rule="evenodd" d="M24.9332 20.4999H29.4665C29.4665 20.2829 29.461 20.0672 29.45 19.8529L27.195 19.8136L29.4197 19.4113C29.373 18.8714 29.2918 18.3413 29.1785 17.8233L26.6242 18.2852L29.0589 17.3261C28.9266 16.822 28.7635 16.3304 28.5718 15.8533L25.7855 16.9509L28.3378 15.3091C28.1289 14.8534 27.8932 14.4125 27.6329 13.9883L24.7342 15.8528L27.2589 13.4148C26.9845 13.0182 26.6877 12.6384 26.3704 12.2771L23.528 15.022L25.8317 11.7012C25.5047 11.373 25.1595 11.0628 24.7978 10.7725L22.2294 14.4747L24.0737 10.2331C23.7081 9.98068 23.3283 9.74729 22.9358 9.53436L21.117 13.7172C23.4051 15.109 24.9332 17.626 24.9332 20.4999ZM9.06654 20.4999H4.5332C4.5332 20.2892 4.53843 20.0798 4.54876 19.8716L9.08524 19.9508C9.07284 20.1322 9.06654 20.3153 9.06654 20.4999ZM22.0151 9.08308C21.6263 8.91203 21.2271 8.76026 20.8187 8.62898L19.8493 13.0936C20.2573 13.2507 20.6491 13.4406 21.0214 13.6599L22.0151 9.08308ZM19.7058 8.32767C19.3107 8.24023 18.9085 8.17154 18.5003 8.12257L18.4205 12.6934C18.8337 12.7681 19.2358 12.8748 19.624 13.0108L19.7058 8.32767ZM16.9999 8.0332C16.6821 8.0332 16.3671 8.04509 16.0553 8.06845L16.8689 12.5676C16.9124 12.5669 16.9561 12.5665 16.9999 12.5665C17.3566 12.5665 17.7078 12.5901 18.0521 12.6357L17.2202 8.03511C17.1469 8.03384 17.0735 8.0332 16.9999 8.0332ZM14.6342 12.9252L12.1241 9.02274C11.8017 9.15987 11.4863 9.31019 11.1785 9.47302L13.6455 13.3085C13.9641 13.1596 14.2943 13.0313 14.6342 12.9252ZM12.9706 13.6645L9.76566 10.3456C9.49724 10.5372 9.23673 10.7392 8.98473 10.9509L12.1458 14.2243C12.4082 14.0211 12.6836 13.834 12.9706 13.6645ZM7.71244 12.1834C7.50584 12.4139 7.3077 12.6522 7.1185 12.8978L10.8507 15.4869C11.0479 15.2454 11.259 15.0156 11.4828 14.799L7.71244 12.1834ZM6.09065 14.4614C5.95017 14.7146 5.81825 14.9733 5.69529 15.2369L9.85583 17.046C9.98317 16.7831 10.1246 16.5283 10.2791 16.2826L6.09065 14.4614ZM5.01065 17.0711C4.9366 17.3305 4.87074 17.5934 4.81338 17.8594L9.24442 18.8215C9.30191 18.5545 9.37284 18.2926 9.45646 18.0364L5.01065 17.0711ZM16.3625 12.5918C15.9839 12.6219 15.6129 12.6785 15.2512 12.7599L13.5767 8.50904C13.9296 8.40851 14.2888 8.32313 14.6536 8.25365L16.3625 12.5918Z" fill="#D5D931"/>
  <path fill-rule="evenodd" clip-rule="evenodd" d="M24.3005 20.4997L24.9333 20.4776C24.933 20.351 24.9297 20.2251 24.9234 20.1L21.0778 20.2343L21.0105 20.2233L24.8462 19.3201C24.8248 19.176 24.7994 19.0331 24.7703 18.8917L21.1276 19.7494L24.5867 18.173C24.5383 18.0151 24.4852 17.8594 24.4274 17.7059L21.1878 19.1822L24.147 17.0519C24.0666 16.8855 23.9805 16.7224 23.8891 16.5627L21.1035 18.568L23.5191 15.9776C23.4022 15.8093 23.2789 15.6458 23.1497 15.4874L20.8597 17.9432L22.6953 14.9769C22.5386 14.8153 22.375 14.6604 22.2051 14.5126L20.4503 17.3484L21.6701 14.0859C21.472 13.9414 21.2669 13.8059 21.0556 13.6799L19.8797 16.825L20.4454 13.3516C20.207 13.2365 19.962 13.133 19.7112 13.0417L19.162 16.4139L19.0368 12.8303C18.7631 12.7578 18.4836 12.6996 18.1991 12.6564L18.3212 16.1523L17.4802 12.5807C17.3214 12.5712 17.1612 12.5664 17 12.5664C16.8549 12.5664 16.7107 12.5703 16.5675 12.578L17.3905 16.0732L15.8313 12.6519C15.509 12.6995 15.193 12.7665 14.8845 12.8516L16.4106 16.2004L14.1689 13.0865C13.8493 13.2086 13.5396 13.3508 13.2413 13.5116L15.4286 16.5499L12.5908 13.9035C12.2931 14.1029 12.0097 14.3219 11.7423 14.5587L14.4946 17.1252L11.2003 15.0866C10.9448 15.3603 10.7084 15.652 10.4933 15.9597L13.6611 17.92L10.0969 16.5874C9.90416 16.9267 9.73574 17.2815 9.59399 17.6497L12.9791 18.9153L9.36781 18.3272C9.25699 18.7172 9.17526 19.1195 9.12513 19.5316L12.4949 20.0804L9.07221 20.1999C9.06851 20.2994 9.06665 20.3994 9.06665 20.4997H13.6C13.6 18.622 15.1222 17.0997 17 17.0997C18.8778 17.0997 20.4 18.622 20.4 20.4997L24.3005 20.4997Z" fill="#D5D931"/>
  <path d="M145.395 13.6646H135.904C136.277 15.5031 137.593 16.5217 139.531 16.5217C140.947 16.5217 141.792 16.2484 143.159 15.3043L144.6 17.3913C143.01 18.7081 141.544 19.2298 139.432 19.2298C135.507 19.2298 132.724 16.2733 132.724 12.472C132.724 8.67081 135.631 5.71428 139.308 5.71428C143.308 5.71428 145.395 8.81988 145.395 12.5217V13.6646ZM135.879 11.4286H142.339C142.19 9.86335 141.27 8.37267 139.333 8.37267C137.569 8.37267 136.227 9.46584 135.879 11.4286Z" fill="#B6BBB4"/>
  <path d="M119.102 23.0062L119.897 20.3975C121.065 20.9441 122.382 21.2919 123.723 21.2919C126.854 21.2919 127.674 20 127.674 17.8137V16.8199C126.978 17.7143 125.537 18.8571 123.375 18.8571C119.897 18.8571 117.438 16.0745 117.438 12.323C117.438 8.54658 119.897 5.71428 123.375 5.71428C125.711 5.71428 127.301 6.75776 128.22 7.92547L128.767 5.98758H130.779V17.2422C130.779 22.0124 128.245 24 123.972 24C121.512 24 119.872 23.4037 119.102 23.0062ZM124.146 16.0248C126.233 16.0248 127.674 14.5093 127.674 12.323C127.674 10.1366 126.233 8.54658 124.146 8.54658C122.009 8.54658 120.568 10.0621 120.568 12.323C120.568 14.559 122.009 16.0248 124.146 16.0248Z" fill="#B6BBB4"/>
  <path d="M113.48 18.9565L112.934 16.9938C112.015 18.1615 110.425 19.2298 108.089 19.2298C104.611 19.2298 102.151 16.2236 102.151 12.4721C102.151 8.69565 104.611 5.71429 108.089 5.71429C110.251 5.71429 111.692 6.88199 112.387 7.7764V1.62871H115.493V18.9565H113.48ZM108.859 16.3975C110.946 16.3975 112.387 14.6584 112.387 12.4721C112.387 10.2609 110.946 8.54658 108.859 8.54658C106.723 8.54658 105.282 10.2112 105.282 12.4721C105.282 14.7081 106.723 16.3975 108.859 16.3975Z" fill="#B6BBB4"/>
  <path d="M96.7545 1.8882C96.7545 0.84472 97.5496 0 98.6179 0C99.6614 0 100.506 0.84472 100.506 1.8882C100.506 2.93168 99.6614 3.7764 98.6179 3.7764C97.5496 3.7764 96.7545 2.93168 96.7545 1.8882ZM100.208 18.9565H97.1024V5.98758H100.208V18.9565Z" fill="#B6BBB4"/>
  <path d="M90.7931 18.9565H87.6875V5.98758H89.675L90.4204 8.27329C91.116 7.03106 92.2589 5.54037 95.5881 5.73913L95.1657 9.04348C91.8365 8.81988 90.7931 10.559 90.7931 12.646V18.9565Z" fill="#B6BBB4"/>
  <path d="M79.3943 18.9565H72.0402V1.56521H78.7732C81.6054 1.56521 85.0092 2.73291 85.0092 6.3354C85.0092 8.39751 83.6924 9.46583 82.5992 10.0373V10.0621C83.7669 10.559 85.6303 11.6522 85.6303 14.2112C85.6303 17.7143 82.6738 18.9565 79.3943 18.9565ZM75.2204 4.32297V8.81987H78.8477C80.7607 8.81987 81.8042 7.9503 81.8042 6.63353C81.8042 4.96894 80.711 4.32297 78.6241 4.32297H75.2204ZM75.2204 11.5279V16.1987H79.2204C81.4564 16.1987 82.4253 15.4534 82.4253 13.9379C82.4253 12.4969 81.2576 11.5279 79.2949 11.5279H75.2204Z" fill="#B6BBB4"/>
  <path d="M69.9571 13.6646H60.4665C60.8391 15.5031 62.1559 16.5217 64.0938 16.5217C65.5099 16.5217 66.3546 16.2484 67.7211 15.3043L69.1621 17.3913C67.572 18.7081 66.1062 19.2298 63.9944 19.2298C60.0689 19.2298 57.2863 16.2733 57.2863 12.472C57.2863 8.67081 60.1932 5.71428 63.8702 5.71428C67.8702 5.71428 69.9571 8.81988 69.9571 12.5217V13.6646ZM60.4416 11.4286H66.9012C66.7522 9.86335 65.8329 8.37267 63.895 8.37267C62.131 8.37267 60.7894 9.46584 60.4416 11.4286Z" fill="#B6BBB4"/>
  <path d="M53.3292 18.9565L52.7826 16.9938C51.8633 18.1615 50.2733 19.2298 47.9379 19.2298C44.4596 19.2298 42 16.2236 42 12.4721C42 8.69565 44.4596 5.71429 47.9379 5.71429C50.0994 5.71429 51.5404 6.88199 52.236 7.7764V1.62871H55.3416V18.9565H53.3292ZM48.7081 16.3975C50.795 16.3975 52.236 14.6584 52.236 12.4721C52.236 10.2609 50.795 8.54658 48.7081 8.54658C46.5714 8.54658 45.1304 10.2112 45.1304 12.4721C45.1304 14.7081 46.5714 16.3975 48.7081 16.3975Z" fill="#B6BBB4"/>
</svg>
