<svg width="139" height="36" viewBox="0 0 139 36" fill="none" xmlns="http://www.w3.org/2000/svg">
<path d="M42.0938 21.7633V11.0931L44.6003 8.58647H51.6372L54.0518 11.0011V12.7718H51.8901V11.7599L50.5793 10.4492H45.5892L44.2094 11.8289V20.9814L45.5892 22.3612H50.5793L51.8901 21.0504V20.0386H54.0518V21.8093L51.6372 24.2239H44.6003L42.0938 21.7633ZM56.6503 8.56348H67.2056V10.4492H58.812V15.4623H66.5617V17.325H58.812V22.4072H67.2056V24.2928H56.6503V8.56348ZM81.4172 19.3487V24.2928H79.2555V19.9006L77.3929 17.8999H72.0348V24.2928H69.8731V8.58647H79.1406L81.3252 10.7711V15.6463L79.6005 17.371L81.4172 19.3487ZM72.0577 16.0372H78.1977L79.2096 15.0484V11.392L78.1977 10.4032H72.0577V16.0372ZM87.9481 10.4262H83.2109V8.56348H94.8239V10.4262H90.0867V24.2699H87.9251V10.4262H87.9481ZM96.5257 21.7633V11.0931L99.0322 8.58647H106.437L108.944 11.0931V21.7633L106.437 24.2699H99.0322L96.5257 21.7633ZM105.425 22.3842L106.805 21.0044V11.8519L105.425 10.4722H100.09L98.7103 11.8519V21.0044L100.09 22.3842H105.425ZM123.638 19.3487V24.2928H121.477V19.9006L119.614 17.8999H114.256V24.2928H112.094V8.58647H121.362L123.546 10.7711V15.6463L121.821 17.371L123.638 19.3487ZM114.256 16.0372H120.396L121.408 15.0484V11.392L120.396 10.4032H114.256V16.0372ZM131.181 8.56348H133.343L139 24.2699H136.769L135.389 20.2685H129.18L127.8 24.2699H125.57L131.181 8.56348ZM134.814 18.4748L132.285 11.139H132.239L129.755 18.4748H134.814Z" fill="#EAEBEF" style="fill:#EAEBEF;fill:color(display-p3 0.9176 0.9216 0.9373);fill-opacity:1;"/>
<path d="M29.4692 1.34277V26.3626L15.2346 34.5722L1 26.3626V1.34277H29.4692Z" stroke="#EAEBEF" style="stroke:#EAEBEF;stroke:color(display-p3 0.9176 0.9216 0.9373);stroke-opacity:1;" stroke-width="1.5"/>
<path d="M1.34473 10.1045L29.2391 26.2938" stroke="#EAEBEF" style="stroke:#EAEBEF;stroke:color(display-p3 0.9176 0.9216 0.9373);stroke-opacity:1;" stroke-width="1.5"/>
<path d="M29.2621 10.1045L1.34473 26.2938" stroke="#EAEBEF" style="stroke:#EAEBEF;stroke:color(display-p3 0.9176 0.9216 0.9373);stroke-opacity:1;" stroke-width="1.5"/>
<path d="M15.3037 2.10156V34.1352" stroke="#EAEBEF" style="stroke:#EAEBEF;stroke:color(display-p3 0.9176 0.9216 0.9373);stroke-opacity:1;" stroke-width="1.5"/>
<path d="M15.2345 1.89453L1.29883 26.2245" stroke="#EAEBEF" style="stroke:#EAEBEF;stroke:color(display-p3 0.9176 0.9216 0.9373);stroke-opacity:1;" stroke-width="1.5"/>
<path d="M15.1885 1.7334L29.2621 26.2243" stroke="#EAEBEF" style="stroke:#EAEBEF;stroke:color(display-p3 0.9176 0.9216 0.9373);stroke-opacity:1;" stroke-width="1.5"/>
<path d="M15.2346 1.7334L29.4692 9.94303V26.3623L15.2346 34.5719L1 26.3623V9.94303L15.2346 1.7334Z" stroke="#EAEBEF" style="stroke:#EAEBEF;stroke:color(display-p3 0.9176 0.9216 0.9373);stroke-opacity:1;" stroke-width="1.5"/>
</svg>
