<svg width="146" height="41" viewBox="0 0 146 41" fill="none" xmlns="http://www.w3.org/2000/svg">
<path d="M34.4953 10.9165C34.4953 10.9677 34.4439 11.019 34.4439 11.019C34.3925 15.529 34.2897 20.039 34.2383 24.549C34.2383 24.9077 34.3925 25.0102 34.701 24.959C35.6263 24.959 36.6031 24.959 37.5284 24.959C37.9397 24.959 38.0939 24.8052 38.0939 24.3952C38.0939 22.909 38.1453 21.4227 38.0939 19.9877C38.0939 19.5777 38.1967 19.4752 38.608 19.4752C40.9214 19.4752 43.1834 19.4752 45.4967 19.5265C45.9594 19.5265 46.1136 19.3727 46.1136 18.9115C46.1136 16.9127 46.165 14.8627 46.2165 12.864C46.2165 12.1977 46.2165 11.5827 46.2165 10.8652H34.4953V10.9165ZM42.3094 13.3252C42.258 14.5552 42.3094 15.7852 42.258 17.0665C42.258 17.2202 42.258 17.4252 42.2066 17.6302C40.9214 17.6302 39.739 17.6302 38.5052 17.6302C38.4024 17.6302 38.1967 17.4252 38.1967 17.2715C38.1967 15.8365 38.1967 14.4015 38.1967 12.9152C38.4538 12.9152 38.608 12.864 38.8136 12.864C39.8418 12.864 40.8186 12.864 41.8467 12.864C42.1552 12.864 42.3094 12.9152 42.3094 13.3252ZM83.4362 15.2215C82.0481 15.2215 80.7115 15.2215 79.3235 15.2215C79.1693 15.2215 78.9636 15.324 78.8608 15.4265C77.9355 16.2977 77.0615 17.169 76.1876 17.989C76.0334 18.1427 75.8791 18.2452 75.6735 18.4502V11.019C74.6453 11.019 73.6686 11.0702 72.6918 11.019C72.1777 11.019 72.0749 11.1727 72.0749 11.6852C72.0749 13.9915 72.0235 16.349 72.0235 18.6552C72.0235 20.654 71.9721 22.704 71.9721 24.7027C71.9721 24.9077 71.8693 25.2152 72.2291 25.2152C73.3087 25.2152 74.4397 25.2152 75.6221 25.2152V20.1927C76.8045 21.6277 77.8841 23.0627 78.8608 24.549C79.2207 25.0615 79.5805 25.2665 80.1974 25.2665C81.2256 25.2152 82.3052 25.2665 83.4876 25.2665C82.0995 23.2677 80.8143 21.4227 79.5291 19.5265C80.9172 18.1427 82.2538 16.8102 83.6418 15.4777C83.4876 15.324 83.4362 15.2727 83.4362 15.2215ZM51.1003 21.7815C51.0488 21.3715 51.2545 21.2177 51.6657 21.2177C53.4136 21.269 55.1101 21.269 56.858 21.269C57.2179 21.269 57.6291 21.269 58.0918 21.269C58.0918 19.2702 58.0918 17.3227 58.0918 15.3752C58.0918 15.2727 57.8348 15.0677 57.6805 15.0677C56.858 15.0165 56.0355 15.0677 55.2129 15.0677C52.8481 15.0677 50.4834 15.0677 48.1186 15.0165C47.7073 15.0165 47.5531 15.119 47.5531 15.5802C47.6045 15.8877 47.5531 16.2465 47.5531 16.554C47.5017 19.219 47.5017 21.8327 47.4503 24.4977C47.4503 24.8052 47.4503 25.0102 47.8615 25.0102C50.9974 25.0102 54.1848 25.0615 57.3207 25.0615C57.4749 25.0615 57.6805 24.959 57.7319 24.8565C57.989 24.3952 58.1946 23.8827 58.5031 23.2677H51.1003C51.1003 22.704 51.1517 22.2427 51.1003 21.7815ZM51.1517 16.9127C52.1798 16.9127 53.1052 16.9127 54.0819 16.9127C54.1848 16.9127 54.3904 17.1177 54.3904 17.2715C54.4418 17.8352 54.3904 18.399 54.3904 18.9627C54.3904 19.2702 54.2876 19.3727 53.9791 19.3727C53.1566 19.3727 52.3341 19.3727 51.5115 19.3215C51.4087 19.3215 51.2031 19.1165 51.2031 19.014C51.1517 18.3477 51.1517 17.6815 51.1517 16.9127ZM88.8855 13.7352C88.8855 13.0177 88.8855 13.0177 89.6566 13.0177C92.0728 13.0177 94.5404 13.069 96.9566 13.069C97.1622 13.069 97.4707 13.0177 97.5221 12.9152C97.7791 12.4027 97.9848 11.8902 98.2418 11.2752H85.0812V18.9627C85.1841 18.9627 85.3383 18.9627 85.4411 19.014C88.0629 19.0652 90.6334 19.0652 93.2552 19.0652C93.6664 19.0652 93.8207 19.1165 93.8207 19.5777C93.7693 20.7052 93.7693 21.8327 93.8207 22.909C93.8207 23.2677 93.7179 23.3702 93.358 23.3702C92.6383 23.3702 91.97 23.3702 91.2503 23.3702C89.2967 23.3702 87.3946 23.3702 85.4411 23.319C85.2355 23.319 84.927 23.2677 84.927 23.6265C84.927 24.139 84.927 24.6515 84.927 25.164C85.0812 25.164 85.1841 25.2152 85.2869 25.2152C89.2453 25.2665 93.2038 25.2665 97.2136 25.3177C97.6249 25.3177 97.6763 25.164 97.6763 24.8052C97.6763 23.319 97.7277 21.7815 97.7277 20.2952C97.7277 19.2702 97.7277 18.2452 97.7277 17.169C97.4707 17.169 97.265 17.169 97.1108 17.169C94.5918 17.169 92.0214 17.1177 89.5024 17.1177C89.0911 17.1177 88.9369 17.0152 88.9369 16.554C88.8855 15.6315 88.8855 14.6577 88.8855 13.7352ZM64.2608 17.0152C65.9573 17.0152 67.7052 17.0152 69.4017 17.0152C69.5559 17.0152 69.8643 16.964 69.9157 16.8615C70.1728 16.349 70.327 15.8365 70.5326 15.2727C70.3784 15.2215 70.327 15.2215 70.2756 15.2215C66.9341 15.2215 63.6439 15.1702 60.3024 15.119C59.8911 15.119 59.8911 15.3752 59.8911 15.6315C59.8397 17.989 59.8397 20.3465 59.7883 22.704C59.7883 23.4727 59.7883 24.2415 59.7883 24.959C59.8911 25.0102 59.8911 25.0102 59.9425 25.0102C63.0784 25.0102 66.1629 25.0615 69.2988 25.0615C69.4531 25.0615 69.6073 24.9077 69.7101 24.8052C69.9672 24.344 70.1214 23.8827 70.3784 23.2677C70.0186 23.2677 69.8129 23.2165 69.6073 23.2165C67.7566 23.2165 65.9059 23.2165 64.1066 23.2165C63.6439 23.2165 63.4383 23.114 63.4897 22.6015C63.5411 21.2177 63.5411 19.8852 63.5411 18.5015C63.5411 17.989 63.5411 17.4765 63.5411 16.9127C63.8495 17.0152 64.0552 17.0152 64.2608 17.0152ZM128.933 25.4202H132.685C132.737 20.7565 132.788 16.0415 132.891 11.3777H129.087C129.035 16.0415 128.984 20.7052 128.933 25.4202ZM141.631 11.429C141.528 11.429 141.322 11.6852 141.322 11.839C141.322 13.069 141.322 14.299 141.322 15.5802C141.014 15.5802 140.808 15.5802 140.551 15.5802C138.597 15.5802 136.644 15.5802 134.69 15.529C134.331 15.529 134.176 15.5802 134.176 15.9902C134.176 18.9627 134.125 21.9352 134.073 24.9077C134.073 25.4202 134.228 25.5227 134.69 25.5227C137.878 25.5227 141.065 25.5227 144.252 25.5227C144.407 25.5227 144.561 25.5227 144.766 25.4715C144.818 20.7565 144.869 16.0927 144.921 11.3777C143.79 11.3777 142.71 11.3777 141.631 11.429ZM141.219 18.0915C141.219 19.7827 141.168 21.5252 141.168 23.2165C141.168 23.5752 141.065 23.729 140.654 23.729C139.728 23.729 138.752 23.729 137.826 23.729C137.826 21.679 137.826 19.834 137.826 17.9377C137.826 17.5277 137.929 17.374 138.34 17.374C139.266 17.4252 140.191 17.374 141.168 17.374C141.219 17.6815 141.219 17.8865 141.219 18.0915ZM109.552 15.4265C107.65 15.4265 105.747 15.4265 103.794 15.3752C103.588 15.3752 103.434 15.3752 103.177 15.324C103.177 15.0677 103.177 14.8627 103.177 14.6065C103.177 13.6327 103.177 12.6077 103.228 11.634C103.228 11.2752 103.126 11.1215 102.714 11.1215C101.789 11.1215 100.915 11.1215 99.9897 11.1215C99.6298 11.1215 99.527 11.224 99.527 11.5827C99.527 12.3515 99.527 13.069 99.527 13.8377C99.4756 16.1952 99.4756 18.5527 99.4242 20.9102C99.4242 22.3452 99.4242 23.729 99.4242 25.2665C100.452 25.2665 101.481 25.2665 102.509 25.2665C102.971 25.2665 103.074 25.1127 103.074 24.7027C103.074 22.5502 103.126 20.449 103.126 18.2965C103.126 17.9377 103.126 17.579 103.126 17.169H106.364V25.2665C107.393 25.2665 108.421 25.2152 109.449 25.2665C109.963 25.2665 110.066 25.1127 110.066 24.6002C110.066 21.7302 110.117 18.8602 110.169 15.9902C110.22 15.5802 110.117 15.3752 109.552 15.4265ZM120.245 21.679H127.185C127.185 19.9877 127.185 18.399 127.185 16.759C127.185 15.529 127.185 15.529 125.951 15.4777C123.021 15.4777 120.09 15.4265 117.16 15.4265C116.852 15.4265 116.595 15.3752 116.595 15.8365C116.595 18.8602 116.543 21.9352 116.492 24.959C116.492 25.2665 116.543 25.4202 116.903 25.4202C120.039 25.4202 123.226 25.4202 126.362 25.4202C126.516 25.4202 126.671 25.369 126.722 25.3177C126.979 24.8052 127.236 24.2927 127.493 23.6777H120.193V21.679H120.245ZM120.296 17.374C121.324 17.374 122.301 17.374 123.278 17.374C123.329 17.374 123.483 17.579 123.483 17.6815C123.483 18.2965 123.483 18.8602 123.483 19.4752C123.483 19.5777 123.278 19.7827 123.175 19.7827C122.25 19.7827 121.324 19.7827 120.296 19.7827V17.374ZM114.95 15.4777C113.819 15.4265 112.739 15.4777 111.505 15.4777V25.369H115.155C115.155 23.8827 115.155 22.3965 115.155 20.9102C115.155 19.2702 115.207 17.6302 115.207 15.939C115.207 15.7852 115.052 15.4777 114.95 15.4777ZM114.95 11.2752C113.921 11.224 112.945 11.224 111.916 11.2752C111.814 11.2752 111.608 11.4802 111.608 11.5827C111.608 12.454 111.608 13.3765 111.608 14.4015C112.739 14.4015 113.87 14.4015 114.95 14.4015C115.052 14.4015 115.258 14.1965 115.258 14.094C115.309 13.274 115.309 12.5052 115.309 11.6852C115.309 11.4802 115.104 11.2752 114.95 11.2752Z" fill="#EAEBEF" style="fill:#EAEBEF;fill:color(display-p3 0.9176 0.9216 0.9373);fill-opacity:1;"/>
<path d="M22.9285 21.1664C23.3398 21.5764 24.3166 23.5239 24.4194 24.0877C24.5222 24.6514 24.7278 24.8564 24.3166 25.3689C23.3398 26.3427 21.0778 27.5214 19.3299 28.1877C21.1806 26.2402 20.5123 25.0614 18.5588 24.6002C15.2173 23.8314 13.8806 21.9864 13.2637 19.5264C12.6468 17.0664 11.9785 17.0664 11.1046 16.9127C10.1278 16.8102 9.3567 17.2202 5.60388 18.7577C4.72993 20.1927 4.11303 20.0902 4.11303 20.0902C2.93064 20.0902 3.08486 18.9627 3.23909 18.7064C3.54754 18.1427 4.06163 17.9889 4.67853 17.9889C5.29543 17.9889 5.60388 18.3477 5.60388 18.3477C5.60388 18.3477 5.86092 18.2964 10.5391 16.0414C10.7447 15.4777 11.5159 13.4277 13.675 13.4277C15.8342 13.4277 17.7877 15.4777 19.3299 15.4777C22.363 11.2752 25.9102 8.66145 25.9102 8.66145L26.6813 10.9164L29.4574 9.0202C29.4574 8.86645 29.4574 8.76395 29.4574 8.76395C29.4574 8.76395 28.8919 6.71395 26.6299 6.71395C21.3349 4.7152 17.068 3.0752 15.1144 3.0752C13.1609 3.0752 8.84261 4.7152 3.59895 6.7652C1.28557 6.7652 0.771484 8.8152 0.771484 8.8152C0.771484 8.8152 1.07994 18.0914 1.33698 21.1152C1.64543 25.2152 3.54754 26.9577 3.54754 26.9577L6.16937 29.7764L15.1659 37.5665L24.1109 29.7252L26.7328 26.9064C26.7328 26.9064 28.5835 25.1639 28.9433 21.0639C28.9947 20.5002 29.0461 19.6802 29.0975 18.7064C27.6581 20.1414 24.5736 21.1664 22.9285 21.1664Z" fill="#EAEBEF" style="fill:#EAEBEF;fill:color(display-p3 0.9176 0.9216 0.9373);fill-opacity:1;"/>
</svg>
