<svg width="140" height="40" viewBox="0 0 140 40" fill="none" xmlns="http://www.w3.org/2000/svg">
<path d="M33.2283 17.113H27.0114C27.0114 17.3619 27.0135 17.5633 27.0114 17.7647C26.9897 20.0005 27.0837 22.2446 26.9236 24.4701C26.5147 30.1737 22.1287 35.7308 15.5638 36.654C7.31449 37.8137 1.07174 31.5245 0.120614 24.9296C-0.738602 18.9709 2.97606 11.0221 11.8006 10.0875C12.4832 10.0152 13.1731 9.98629 13.8598 9.98526C20.1387 9.97803 26.4186 9.98113 32.6975 9.98113H33.2283V17.112V17.113ZM19.8878 17.1079C18.5163 17.1079 17.2275 17.0944 15.9387 17.112C14.685 17.1296 13.4199 17.081 12.1806 17.2339C8.95546 17.6315 6.6267 20.8814 7.20089 24.089C7.4601 25.54 8.17783 26.7648 9.21571 27.7892C11.0643 29.615 13.2712 30.1603 15.7125 29.3032C18.1466 28.4491 19.4974 26.582 19.7948 24.0725C19.9817 22.4935 19.8702 20.8793 19.8867 19.2807C19.8939 18.5795 19.8878 17.8772 19.8878 17.1079Z" fill="white" style="fill:white;fill-opacity:1;"/>
<path d="M40.1189 12.4113H35.4531V0.535156H40.1189V12.4113Z" fill="white" style="fill:white;fill-opacity:1;"/>
<path d="M80.4117 28.1482C80.4522 27.4735 80.6209 26.9135 80.9178 26.4682C81.2146 26.0229 81.5925 25.6653 82.0513 25.3954C82.5101 25.1255 83.0229 24.9366 83.5896 24.8287C84.1699 24.7072 84.7501 24.6465 85.3303 24.6465C85.8566 24.6465 86.3896 24.687 86.9294 24.7679C87.4692 24.8354 87.9617 24.9771 88.407 25.193C88.8523 25.4089 89.2167 25.7125 89.5 26.1038C89.7834 26.4817 89.9251 26.9877 89.9251 27.6219V33.0668C89.9251 33.5391 89.9521 33.9911 90.0061 34.423C90.06 34.8548 90.1545 35.1786 90.2894 35.3945H87.3747C87.3207 35.2326 87.2735 35.0707 87.233 34.9087C87.206 34.7333 87.1858 34.5579 87.1723 34.3825C86.7135 34.8548 86.1737 35.1854 85.553 35.3743C84.9323 35.5632 84.2981 35.6577 83.6503 35.6577C83.1511 35.6577 82.6855 35.5969 82.2537 35.4755C81.8219 35.3541 81.444 35.1651 81.1202 34.9087C80.7963 34.6524 80.5399 34.3285 80.351 33.9372C80.1756 33.5458 80.0879 33.0803 80.0879 32.5405C80.0879 31.9468 80.1891 31.461 80.3915 31.0832C80.6074 30.6918 80.8773 30.3815 81.2012 30.1521C81.5385 29.9227 81.9163 29.754 82.3347 29.646C82.7665 29.5246 83.1983 29.4301 83.6301 29.3627C84.0619 29.2952 84.487 29.2412 84.9053 29.2007C85.3236 29.1603 85.6947 29.0995 86.0185 29.0186C86.3424 28.9376 86.5988 28.8229 86.7877 28.6745C86.9766 28.5125 87.0643 28.2831 87.0508 27.9863C87.0508 27.6759 86.9969 27.433 86.8889 27.2576C86.7945 27.0687 86.6595 26.927 86.4841 26.8325C86.3222 26.7246 86.1265 26.6571 85.8971 26.6301C85.6812 26.5896 85.445 26.5694 85.1887 26.5694C84.6219 26.5694 84.1766 26.6908 83.8527 26.9337C83.5289 27.1766 83.34 27.5815 83.286 28.1482H80.4117ZM87.0508 30.2735C86.9294 30.3815 86.7742 30.4692 86.5853 30.5367C86.4099 30.5906 86.2142 30.6379 85.9983 30.6783C85.7959 30.7188 85.58 30.7526 85.3506 30.7796C85.1212 30.8065 84.8918 30.8403 84.6624 30.8808C84.4465 30.9212 84.2306 30.9752 84.0147 31.0427C83.8123 31.1102 83.6301 31.2046 83.4682 31.3261C83.3197 31.434 83.1983 31.5757 83.1038 31.7511C83.0094 31.9266 82.9621 32.1492 82.9621 32.4191C82.9621 32.6755 83.0094 32.8914 83.1038 33.0668C83.1983 33.2422 83.3265 33.3839 83.4884 33.4919C83.6503 33.5863 83.8392 33.6538 84.0552 33.6943C84.2711 33.7348 84.4937 33.755 84.7231 33.755C85.2899 33.755 85.7284 33.6605 86.0388 33.4716C86.3492 33.2827 86.5786 33.0601 86.727 32.8037C86.8754 32.5338 86.9631 32.2639 86.9901 31.994C87.0306 31.7241 87.0508 31.5082 87.0508 31.3463V30.2735Z" fill="white" style="fill:white;fill-opacity:1;"/>
<path d="M62.4727 24.9299H65.185V26.3467H65.2255C65.6033 25.807 66.0553 25.3887 66.5816 25.0918C67.1214 24.7949 67.7354 24.6465 68.4236 24.6465C69.0848 24.6465 69.6853 24.7747 70.225 25.0311C70.7783 25.2875 71.1966 25.7395 71.48 26.3872C71.7903 25.9284 72.2086 25.5236 72.7349 25.1728C73.2747 24.8219 73.9089 24.6465 74.6376 24.6465C75.1908 24.6465 75.7036 24.714 76.1759 24.8489C76.6482 24.9838 77.053 25.1997 77.3904 25.4966C77.7277 25.7935 77.9909 26.1848 78.1798 26.6706C78.3687 27.1429 78.4632 27.7164 78.4632 28.3911V35.3945H75.5889V29.4639C75.5889 29.113 75.5754 28.7824 75.5484 28.4721C75.5215 28.1617 75.4472 27.8918 75.3258 27.6624C75.2043 27.433 75.0222 27.2508 74.7793 27.1159C74.5499 26.981 74.2328 26.9135 73.8279 26.9135C73.4231 26.9135 73.0925 26.9945 72.8361 27.1564C72.5932 27.3048 72.3976 27.5072 72.2491 27.7636C72.1142 28.0065 72.0197 28.2899 71.9658 28.6138C71.9253 28.9241 71.905 29.2412 71.905 29.5651V35.3945H69.0308V29.5246C69.0308 29.2142 69.024 28.9106 69.0105 28.6138C68.9971 28.3034 68.9363 28.02 68.8284 27.7636C68.7339 27.5072 68.5652 27.3048 68.3223 27.1564C68.0929 26.9945 67.7488 26.9135 67.29 26.9135C67.1551 26.9135 66.9729 26.9472 66.7435 27.0147C66.5276 27.0687 66.3117 27.1834 66.0958 27.3588C65.8934 27.5207 65.718 27.7636 65.5696 28.0875C65.4211 28.3978 65.3469 28.8094 65.3469 29.3222V35.3945H62.4727V24.9299Z" fill="white" style="fill:white;fill-opacity:1;"/>
<path d="M55.0985 32.9251C55.5033 32.9251 55.8609 32.8442 56.1712 32.6822C56.4816 32.5203 56.738 32.3044 56.9404 32.0345C57.1428 31.7646 57.2913 31.461 57.3857 31.1237C57.4937 30.7728 57.5476 30.4085 57.5476 30.0306C57.5476 29.5988 57.5072 29.194 57.4262 28.8162C57.3452 28.4248 57.2103 28.0807 57.0214 27.7839C56.8325 27.487 56.5828 27.2508 56.2724 27.0754C55.9621 26.9 55.5708 26.8123 55.0985 26.8123C54.6936 26.8123 54.3428 26.8933 54.0459 27.0552C53.7625 27.2171 53.5197 27.4398 53.3172 27.7231C53.1283 27.993 52.9866 28.3101 52.8922 28.6745C52.8112 29.0253 52.7707 29.3964 52.7707 29.7877C52.7707 30.1656 52.8045 30.5434 52.8719 30.9212C52.9529 31.2856 53.0811 31.6162 53.2565 31.9131C53.4454 32.2099 53.6883 32.4528 53.9852 32.6417C54.2821 32.8307 54.6532 32.9251 55.0985 32.9251ZM60.2802 34.7266C60.2802 35.1449 60.2195 35.6239 60.098 36.1637C59.9901 36.7035 59.7472 37.2027 59.3693 37.6615C58.9915 38.1338 58.445 38.5319 57.7298 38.8558C57.0146 39.1796 56.0565 39.3416 54.8556 39.3416C54.3428 39.3416 53.8165 39.2741 53.2768 39.1392C52.7505 39.0177 52.2647 38.822 51.8194 38.5522C51.3876 38.2823 51.0232 37.9314 50.7264 37.4996C50.443 37.0813 50.2811 36.5753 50.2406 35.9815H53.0946C53.2295 36.5213 53.4927 36.8924 53.884 37.0948C54.2753 37.3107 54.7274 37.4187 55.2401 37.4187C56.0498 37.4187 56.6368 37.1758 57.0011 36.69C57.379 36.2042 57.5611 35.5902 57.5476 34.848V33.4716H57.5072C57.1968 34.0249 56.7515 34.4365 56.1712 34.7063C55.6045 34.9627 55.004 35.0909 54.3698 35.0909C53.5871 35.0909 52.9124 34.956 52.3457 34.6861C51.7789 34.4027 51.3134 34.0249 50.949 33.5526C50.5847 33.0668 50.3148 32.5068 50.1394 31.8726C49.9774 31.2249 49.8965 30.5434 49.8965 29.8282C49.8965 29.1535 49.9909 28.5058 50.1799 27.8851C50.3823 27.2508 50.6724 26.6976 51.0502 26.2253C51.4281 25.7395 51.8936 25.3549 52.4469 25.0715C53.0136 24.7882 53.6613 24.6465 54.39 24.6465C55.0782 24.6465 55.6787 24.7747 56.1915 25.0311C56.7178 25.2875 57.1563 25.7193 57.5072 26.3265H57.5476V24.9299H60.2802V34.7266Z" fill="white" style="fill:white;fill-opacity:1;"/>
<path d="M48.1594 23.3106H45.2852V20.9424H48.1594V23.3106ZM45.2852 24.9299H48.1594V35.3946H45.2852V24.9299Z" fill="white" style="fill:white;fill-opacity:1;"/>
<path d="M36.7619 31.994C36.7619 32.3044 36.8226 32.5743 36.944 32.8037C37.079 33.0196 37.2476 33.2017 37.4501 33.3502C37.6525 33.4851 37.8819 33.5863 38.1383 33.6538C38.4081 33.7213 38.6848 33.755 38.9681 33.755C39.1705 33.755 39.3797 33.7348 39.5956 33.6943C39.825 33.6403 40.0274 33.5661 40.2028 33.4716C40.3918 33.3637 40.5469 33.2287 40.6684 33.0668C40.7898 32.8914 40.8506 32.6755 40.8506 32.4191C40.8506 31.9873 40.5604 31.6634 39.9802 31.4475C39.4134 31.2316 38.6173 31.0157 37.5917 30.7998C37.1734 30.7053 36.7619 30.5974 36.357 30.4759C35.9657 30.341 35.6149 30.1723 35.3045 29.9699C34.9941 29.754 34.7445 29.4909 34.5556 29.1805C34.3666 28.8566 34.2722 28.4653 34.2722 28.0065C34.2722 27.3318 34.4004 26.7786 34.6568 26.3467C34.9267 25.9149 35.2775 25.5776 35.7093 25.3347C36.1411 25.0783 36.6269 24.9029 37.1667 24.8084C37.7064 24.7005 38.2597 24.6465 38.8265 24.6465C39.3932 24.6465 39.9397 24.7005 40.466 24.8084C41.0057 24.9164 41.4848 25.0985 41.9031 25.3549C42.3214 25.6113 42.6655 25.9554 42.9354 26.3872C43.2188 26.8055 43.3875 27.3386 43.4414 27.9863H40.7089C40.6684 27.433 40.4592 27.0619 40.0814 26.873C39.7036 26.6706 39.2583 26.5694 38.7455 26.5694C38.5836 26.5694 38.4081 26.5829 38.2192 26.6099C38.0303 26.6234 37.8549 26.6639 37.6929 26.7313C37.5445 26.7988 37.4163 26.9 37.3084 27.0349C37.2004 27.1564 37.1464 27.3251 37.1464 27.541C37.1464 27.7974 37.2409 28.0065 37.4298 28.1684C37.6187 28.3304 37.8616 28.4653 38.1585 28.5733C38.4689 28.6677 38.8197 28.7554 39.211 28.8364C39.6024 28.9174 40.0004 29.0051 40.4053 29.0995C40.8236 29.194 41.2284 29.3087 41.6197 29.4436C42.0246 29.5786 42.3821 29.7607 42.6925 29.9901C43.0029 30.2061 43.2525 30.4827 43.4414 30.82C43.6304 31.1439 43.7248 31.5487 43.7248 32.0345C43.7248 32.7227 43.5831 33.303 43.2997 33.7752C43.0299 34.234 42.6723 34.6051 42.227 34.8885C41.7817 35.1719 41.2689 35.3675 40.6886 35.4755C40.1219 35.5969 39.5416 35.6577 38.9479 35.6577C38.3407 35.6577 37.7469 35.5969 37.1667 35.4755C36.5864 35.3541 36.0669 35.1516 35.6081 34.8683C35.1628 34.5849 34.7917 34.2138 34.4948 33.755C34.2115 33.2827 34.0563 32.6957 34.0293 31.994H36.7619Z" fill="white" style="fill:white;fill-opacity:1;"/>
<path d="M131.579 30.0861V30.2076C131.579 30.8148 131.66 31.395 131.822 31.9483C131.984 32.5016 132.22 32.9873 132.531 33.4057C132.855 33.824 133.253 34.1546 133.725 34.3975C134.211 34.6404 134.771 34.7618 135.405 34.7618C136.444 34.7618 137.267 34.4919 137.874 33.9522C138.482 33.3989 138.9 32.6365 139.129 31.6649H139.899C139.669 32.8794 139.17 33.8105 138.401 34.4582C137.645 35.1059 136.64 35.4298 135.385 35.4298C134.616 35.4298 133.941 35.2948 133.361 35.025C132.794 34.7416 132.315 34.3637 131.924 33.8915C131.546 33.4057 131.262 32.8389 131.073 32.1912C130.884 31.53 130.79 30.8215 130.79 30.0659C130.79 29.3372 130.884 28.6422 131.073 27.981C131.276 27.3063 131.573 26.7193 131.964 26.2201C132.355 25.7073 132.841 25.3025 133.421 25.0056C134.015 24.6952 134.71 24.54 135.506 24.54C136.235 24.54 136.876 24.675 137.429 24.9449C137.996 25.2147 138.468 25.5858 138.846 26.0581C139.224 26.5169 139.507 27.0567 139.696 27.6774C139.899 28.2847 140 28.9391 140 29.6408C140 29.7083 139.993 29.7892 139.98 29.8837C139.98 29.9647 139.98 30.0321 139.98 30.0861H131.579ZM139.21 29.4182C139.183 28.8514 139.089 28.3184 138.927 27.8191C138.765 27.3063 138.522 26.861 138.198 26.4832C137.888 26.0919 137.503 25.7815 137.045 25.5521C136.599 25.3227 136.086 25.208 135.506 25.208C134.885 25.208 134.339 25.3294 133.867 25.5723C133.394 25.8017 132.996 26.1121 132.672 26.5034C132.349 26.8813 132.099 27.3266 131.924 27.8393C131.748 28.3521 131.64 28.8784 131.6 29.4182H139.21Z" fill="white" style="fill:white;fill-opacity:1;"/>
<path d="M115.187 24.7829H115.956V26.9083H115.996C116.077 26.5844 116.219 26.2808 116.421 25.9974C116.624 25.7005 116.867 25.4441 117.15 25.2282C117.447 25.0123 117.771 24.8437 118.121 24.7222C118.486 24.6008 118.864 24.54 119.255 24.54C119.754 24.54 120.186 24.6075 120.55 24.7425C120.915 24.8639 121.225 25.0326 121.482 25.2485C121.738 25.4509 121.94 25.687 122.089 25.9569C122.237 26.2133 122.338 26.4764 122.392 26.7463H122.433C122.743 26.0176 123.155 25.4711 123.668 25.1068C124.194 24.729 124.882 24.54 125.732 24.54C126.204 24.54 126.636 24.6143 127.028 24.7627C127.432 24.8976 127.777 25.1135 128.06 25.4104C128.357 25.6938 128.586 26.0581 128.748 26.5034C128.91 26.9487 128.991 27.475 128.991 28.0822V35.1869H128.222V28.062C128.222 27.4008 128.121 26.8813 127.918 26.5034C127.716 26.1256 127.473 25.8422 127.19 25.6533C126.92 25.4509 126.643 25.3294 126.36 25.289C126.09 25.235 125.881 25.208 125.732 25.208C125.26 25.208 124.821 25.289 124.416 25.4509C124.025 25.6128 123.681 25.8557 123.384 26.1796C123.101 26.5034 122.878 26.9083 122.716 27.394C122.554 27.8663 122.473 28.4128 122.473 29.0336V35.1869H121.704V28.062C121.704 27.4143 121.603 26.9015 121.401 26.5237C121.212 26.1323 120.982 25.8422 120.712 25.6533C120.456 25.4644 120.186 25.3429 119.903 25.289C119.633 25.235 119.417 25.208 119.255 25.208C118.891 25.208 118.513 25.2822 118.121 25.4306C117.73 25.5791 117.373 25.8085 117.049 26.1188C116.725 26.4292 116.462 26.8273 116.259 27.3131C116.057 27.7989 115.956 28.3724 115.956 29.0336V35.1869H115.187V24.7829Z" fill="white" style="fill:white;fill-opacity:1;"/>
<path d="M111.948 22.8192V20.7344H112.717V22.8192H111.948ZM111.948 35.1866V24.7826H112.717V35.1866H111.948Z" fill="white" style="fill:white;fill-opacity:1;"/>
<path d="M106.902 27.09H106.963C107.057 26.7526 107.226 26.4355 107.469 26.1386C107.725 25.8418 108.029 25.5854 108.38 25.3695C108.744 25.1536 109.142 24.9916 109.574 24.8837C110.019 24.7622 110.478 24.7083 110.95 24.7218V25.4909C110.545 25.4369 110.08 25.4774 109.554 25.6124C109.041 25.7473 108.548 26.0442 108.076 26.503C107.887 26.7054 107.718 26.901 107.57 27.09C107.435 27.2789 107.32 27.488 107.226 27.7174C107.131 27.9468 107.057 28.2032 107.003 28.4866C106.949 28.77 106.915 29.1073 106.902 29.4987V35.1864H106.133V24.7825H106.902V27.09Z" fill="white" style="fill:white;fill-opacity:1;"/>
<path d="M95.8365 27.1714H95.877C95.958 26.915 96.0929 26.6316 96.2819 26.3213C96.4708 26.0109 96.7204 25.7275 97.0308 25.4711C97.3411 25.2013 97.7122 24.9786 98.144 24.8032C98.5893 24.6278 99.0954 24.54 99.6621 24.54C100.458 24.54 101.146 24.6885 101.727 24.9853C102.32 25.2822 102.806 25.6803 103.184 26.1796C103.575 26.6789 103.866 27.2591 104.054 27.9203C104.243 28.5815 104.338 29.2765 104.338 30.0052C104.338 30.8013 104.243 31.53 104.054 32.1912C103.866 32.8524 103.575 33.4259 103.184 33.9117C102.806 34.384 102.32 34.7551 101.727 35.025C101.146 35.2948 100.458 35.4298 99.6621 35.4298C98.7985 35.4298 98.0293 35.2409 97.3546 34.863C96.6799 34.4852 96.1874 33.8712 95.877 33.0211H95.8365V38.9113H95.0674V24.7829H95.8365V27.1714ZM99.6621 34.7618C100.337 34.7618 100.917 34.6336 101.403 34.3772C101.902 34.1209 102.307 33.7768 102.617 33.3449C102.941 32.9131 103.177 32.4138 103.326 31.8471C103.488 31.2668 103.569 30.6529 103.569 30.0052C103.569 29.4114 103.494 28.8312 103.346 28.2644C103.198 27.6842 102.968 27.1714 102.658 26.7261C102.347 26.2673 101.943 25.9029 101.443 25.6331C100.958 25.3497 100.364 25.208 99.6621 25.208C98.9739 25.208 98.3869 25.3429 97.9011 25.6128C97.4154 25.8827 97.0173 26.2403 96.7069 26.6856C96.41 27.1309 96.1941 27.6437 96.0592 28.2239C95.9243 28.7907 95.8568 29.3844 95.8568 30.0052C95.8568 30.6259 95.9175 31.2264 96.039 31.8066C96.1604 32.3734 96.3628 32.8794 96.6462 33.3247C96.9431 33.7565 97.3344 34.1074 97.8202 34.3772C98.3195 34.6336 98.9334 34.7618 99.6621 34.7618Z" fill="white" style="fill:white;fill-opacity:1;"/>
</svg>
