<svg width="17" height="17" viewBox="-2 -2 21 21" fill="none" xmlns="http://www.w3.org/2000/svg">
<path d="M8.43976 6.18753C7.60573 6.18753 6.85357 6.69027 6.53385 7.46047C6.2148 8.23134 6.3914 9.11889 6.98114 9.7086C7.57089 10.2983 8.45841 10.4749 9.22861 10.1553C9.99947 9.83621 10.5022 9.08404 10.5022 8.25C10.5009 7.11112 9.57864 6.18819 8.43976 6.18753ZM8.43976 9.32253C8.00599 9.32253 7.61476 9.0615 7.44912 8.6606C7.28283 8.2597 7.37435 7.79821 7.68114 7.49143C7.98793 7.18464 8.44941 7.0931 8.85031 7.25941C9.25057 7.42505 9.51224 7.81628 9.51224 8.25005C9.51096 8.84172 9.03143 9.32189 8.43976 9.32253Z" fill="#CCCCCC"/>
<path d="M8.43851 3.63C6.84393 3.62806 5.36159 4.4479 4.51597 5.79942C3.67034 7.15036 3.58139 8.84218 4.28006 10.275C4.97874 11.7078 6.36698 12.6791 7.95263 12.8448C9.53819 13.0104 11.0967 12.3472 12.077 11.0896C12.9458 11.2534 13.7979 10.7306 14.0454 9.8818C14.2929 9.03231 13.8566 8.13379 13.0354 7.80445C12.9246 6.66169 12.3929 5.60137 11.5427 4.82999C10.6932 4.05784 9.58663 3.63053 8.43872 3.62988L8.43851 3.63ZM8.43851 11.88C7.50588 11.8813 6.60932 11.5236 5.93315 10.881C5.25767 10.2384 4.85484 9.36117 4.80844 8.4299C4.76268 7.49856 5.07657 6.5852 5.68501 5.87949C6.29409 5.17374 7.15131 4.729 8.07949 4.63749C9.00697 4.54661 9.93442 4.81537 10.6692 5.38966C11.4039 5.9633 11.8893 6.79797 12.0253 7.72028C11.4091 7.8537 10.916 8.31455 10.7401 8.91975C10.5641 9.52497 10.7336 10.1779 11.1822 10.6212C10.4938 11.4192 9.49236 11.8787 8.43851 11.88ZM12.3985 10.1326C12.1027 10.1346 11.8352 9.95798 11.7211 9.68535C11.6064 9.41272 11.6683 9.09818 11.8764 8.88871C12.0853 8.67925 12.3992 8.61673 12.6724 8.72951C12.9457 8.84295 13.1236 9.10915 13.123 9.40499C13.1191 9.80589 12.793 10.1294 12.3921 10.1294L12.3985 10.1326Z" fill="#CCCCCC"/>
<path d="M8.4392 0.910649C6.73706 0.908716 5.08772 1.50039 3.77465 2.58391C2.84524 2.08118 1.68641 2.36219 1.09076 3.23489C0.495209 4.10823 0.656992 5.28963 1.46458 5.97158C0.818114 7.94894 1.04241 10.1081 2.08076 11.9116C3.11846 13.715 4.87355 14.9931 6.90833 15.4276C8.94311 15.862 11.0668 15.4121 12.751 14.1901C14.4351 12.9687 15.5212 11.0892 15.7396 9.01962C15.9581 6.95069 15.2872 4.88555 13.8949 3.33933C12.5027 1.7931 10.5195 0.910039 8.43903 0.910699L8.4392 0.910649ZM2.78597 3.32113C3.21974 3.32113 3.61097 3.58281 3.77726 3.98307C3.9429 4.38397 3.85138 4.84545 3.54457 5.15224C3.23777 5.45904 2.7763 5.55057 2.3754 5.38492C1.97514 5.21864 1.71347 4.8274 1.71347 4.39363C1.71476 3.80196 2.1943 3.32242 2.78597 3.32113ZM8.4392 14.5992C6.4295 14.5999 4.53778 13.6485 3.34037 12.0346C2.14219 10.4214 1.77868 8.33565 2.36068 6.41175C3.1773 6.58256 4.01646 6.24482 4.48572 5.55517C4.95559 4.86552 4.96331 3.96124 4.5057 3.26381C6.11895 1.99151 8.24856 1.579 10.2201 2.15652C12.1917 2.73401 13.7625 4.22925 14.4354 6.17064C15.1083 8.11203 14.8002 10.2588 13.6085 11.9328C12.4167 13.606 10.489 14.5998 8.43423 14.5992L8.4392 14.5992Z" fill="#CCCCCC"/>
</svg>
