<svg xmlns="http://www.w3.org/2000/svg" width="26.222" height="26.222" viewBox="0 0 26.222 26.222">
  <g id="Benqi_Token_Ticker_White" data-name="Benqi Token Ticker White" transform="translate(-0.001 0)">
    <path id="Exclusion_1" data-name="Exclusion 1" d="M7013.933,6693.944a13.112,13.112,0,1,1,9.271-3.84A13.025,13.025,0,0,1,7013.933,6693.944Zm-1.467-12.193h0l.005.01-.005.007,2.875,3.858,1.545,2.08.1.137c.02.026.041.049.065.078l.006.007.024.028a2.937,2.937,0,0,0,.255.256l.127.111.073.055.072.056a1.6,1.6,0,0,0,.162.111,3.982,3.982,0,0,0,2.229.646h2.18l-.005-.007.005-.01-2.875-3.859-1.546-2.079-.1-.14c-.028-.033-.056-.067-.1-.111a2.739,2.739,0,0,0-.255-.256l-.067-.058-.029-.025-.031-.027-.015-.012-.007-.006-.007-.005a.428.428,0,0,0-.043-.034.319.319,0,0,1-.051-.037l-.021-.018a1.657,1.657,0,0,0-.162-.111,3.96,3.96,0,0,0-2.229-.646Zm1.483-9.282a8.361,8.361,0,1,0,2.3,16.394c-.082-.089-2.269-3-2.291-3.032h-.018a5,5,0,1,1,4.994-5,5.135,5.135,0,0,1-.256,1.589l2.247,3.014a8.362,8.362,0,0,0-6.975-12.962Z" transform="translate(-7000.822 -6667.723)" fill="#fff"/>
  </g>
</svg>
