<?xml version="1.0" encoding="UTF-8"?>
<svg width="1227px" height="269px" viewBox="0 0 1227 269" version="1.1" xmlns="http://www.w3.org/2000/svg" xmlns:xlink="http://www.w3.org/1999/xlink">
    <title>wordmarkB</title>
    <defs>
        <linearGradient x1="74.9956527%" y1="11.8044572%" x2="25.0657068%" y2="88.3066006%" id="linearGradient-1">
            <stop stop-color="#FE01FA" offset="0%"></stop>
            <stop stop-color="#FF0F6F" offset="31.6318539%"></stop>
            <stop stop-color="#FF3D3D" offset="51.953125%"></stop>
            <stop stop-color="#FF851F" offset="70.8632996%"></stop>
            <stop stop-color="#FFDB01" offset="100%"></stop>
        </linearGradient>
    </defs>
    <g id="Page-1" stroke="none" stroke-width="1" fill="none" fill-rule="evenodd">
        <g id="wordmarkB" fill-rule="nonzero">
            <path d="M72.6623251,262.81396 L51.9525894,226.930565 C51.3094691,225.600594 51.3094691,224.049228 51.9525894,222.719257 L74.9621958,182.853666 C75.7798329,181.601113 77.1430691,180.811554 78.6354489,180.726192 L124.632862,180.726192 C126.127628,180.813314 127.493452,181.602032 128.317015,182.853666 L151.315722,222.719257 C151.981374,224.059324 151.981374,225.634138 151.315722,226.974205 L128.251616,266.817975 C127.427868,268.035661 126.097112,268.814003 124.632862,268.934539 L83.3114892,268.934539 C79.0059079,268.656631 75.072489,266.395909 72.6623251,262.81396 Z M221.99042,180.758923 L176.211004,101.333225 C175.079796,99.6345129 173.221584,98.5613028 171.186168,98.4311324 L79.5183376,98.4311324 C77.482922,98.5613028 75.6247098,99.6345129 74.4935017,101.333225 L28.6595866,180.802563 C27.7558296,182.631551 27.7558296,184.777761 28.6595866,186.606749 L42.1427145,209.910772 L65.6428147,169.194192 C66.9301153,167.228991 69.0659133,165.984294 71.4088411,165.833874 L131.794071,165.833874 C134.154235,165.965702 136.311071,167.213228 137.603696,169.194192 L167.807211,221.562784 C168.875544,223.675387 168.875544,226.170817 167.807211,228.28342 L144.307111,269 L171.153468,269 C173.194424,268.879106 175.057903,267.798809 176.178304,266.086997 L221.99042,186.628569 C222.915893,184.781667 222.915893,182.605825 221.99042,180.758923 Z M305.156359,128.204859 L234.906755,6.2733209 C232.479045,2.56391758 228.431018,0.234110738 224.006894,0 L83.3986881,0 C78.9745642,0.234110738 74.9265375,2.56391758 72.4988272,6.2733209 L2.21652397,128.204859 C0.222022375,132.141141 0.222022375,136.793398 2.21652397,140.72968 L18.3374183,168.670506 L65.0324225,87.6410204 C66.6335403,85.1961447 69.2993624,83.6575011 72.2154308,83.4951736 L178.390976,83.4951736 C181.304151,83.6574405 183.966678,85.1965177 185.563085,87.6410204 L238.634507,179.64609 C239.953333,182.252369 239.953333,185.331506 238.634507,187.937784 L191.895904,268.934539 L224.050493,268.934539 C228.474617,268.700429 232.522644,266.370622 234.950354,262.661218 L305.232658,140.740591 C307.216645,136.801798 307.216645,132.154561 305.232658,128.215769 L305.156359,128.204859 Z" id="Shape" fill="url(#linearGradient-1)"></path>
            <path d="M388.504503,200.843858 L388.504503,145.303178 L439.80476,145.303178 L439.80476,200.843858 L471.588616,200.843858 L471.588616,67.9965557 L439.80476,67.9965557 L439.80476,118.283387 L388.504503,118.283387 L388.504503,67.9965557 L356.720648,67.9965557 L356.720648,200.843858 L388.504503,200.843858 Z M583.460028,200.843858 L583.460028,173.448793 L522.259119,173.448793 L522.259119,145.86609 L576.949293,145.86609 L576.949293,120.159762 L522.259119,120.159762 L522.259119,95.2039833 L580.11165,95.2039833 L580.11165,67.9965557 L491.565654,67.9965557 L491.565654,200.843858 L583.460028,200.843858 Z M635.419775,200.843858 L663.157017,153.9345 L692.011195,200.843858 L731.290108,200.843858 L683.634176,130.667458 L725.333117,67.9965557 L688.288075,67.9965557 L664.087797,109.276791 L639.515207,67.9965557 L601.167074,67.9965557 L643.610639,130.667458 L597.443954,200.843858 L635.419775,200.843858 Z M761.443568,202.841561 C766.579579,202.841561 770.995295,201.129244 774.690717,197.704609 C778.38614,194.279974 780.233851,189.99918 780.233851,184.862227 C780.233851,179.725275 778.38614,175.444481 774.690717,172.019846 C770.995295,168.595211 766.579579,166.882893 761.443568,166.882893 C758.812928,166.882893 756.338874,167.372127 754.021406,168.350594 C751.703938,169.329061 749.668324,170.643876 747.914564,172.29504 C746.160804,173.946203 744.78285,175.87256 743.780702,178.074111 C742.778553,180.275663 742.277479,182.599522 742.277479,185.04569 C742.277479,187.614166 742.778553,189.968603 743.780702,192.109 C744.78285,194.249397 746.160804,196.1146 747.914564,197.704609 C749.668324,199.294618 751.703938,200.548279 754.021406,201.465592 C756.338874,202.382905 758.812928,202.841561 761.443568,202.841561 Z M855.584741,203.840413 C866.821825,203.840413 876.747915,201.886225 885.363013,197.977849 C893.97811,194.069473 901.219787,188.765248 907.088042,182.065174 L907.088042,182.065174 L884.801159,161.220501 C881.929459,165.190915 878.121337,168.416876 873.37679,170.898385 C868.632244,173.379894 863.07613,174.620648 856.708449,174.620648 C851.214764,174.620648 846.158076,173.628045 841.538386,171.642838 C836.918696,169.657631 832.954503,166.896952 829.645806,163.360802 C826.337109,159.824652 823.746337,155.575069 821.873489,150.612051 C820.000642,145.649034 819.064218,140.189714 819.064218,134.234094 C819.064218,128.402548 820.000642,123.036285 821.873489,118.135306 C823.746337,113.234326 826.368323,108.984742 829.739448,105.386555 C833.110573,101.788367 837.137195,98.9656507 841.819313,96.918406 C846.501431,94.8711613 851.651761,93.847539 857.270303,93.847539 C862.389419,93.847539 867.383679,94.8401425 872.253082,96.8253494 C877.122485,98.8105564 881.055464,101.850405 884.05202,105.944894 L884.05202,105.944894 L905.777048,84.3557681 C900.158507,78.0279208 892.823188,73.2199977 883.771093,69.9319986 C874.718997,66.6439995 865.510831,65 856.146595,65 C846.03322,65 836.606555,66.6129807 827.866601,69.838942 C819.126647,73.0649034 811.510401,77.6867134 805.017864,83.704372 C798.525326,89.7220307 793.437424,97.0114626 789.754158,105.572668 C786.070892,114.133873 784.229259,123.687681 784.229259,134.234094 C784.229259,144.532355 786.039678,153.962088 789.660516,162.523293 C793.281354,171.084498 798.275613,178.435968 804.643294,184.577702 C811.010975,190.719436 818.533578,195.465321 827.211104,198.815358 C835.88863,202.165395 845.346509,203.840413 855.584741,203.840413 Z M983.906359,203.840413 C994.229125,203.840413 1003.80567,202.165395 1012.63598,198.815358 C1021.4663,195.465321 1029.084,190.719436 1035.48909,184.577702 C1041.89418,178.435968 1046.9001,171.053479 1050.50685,162.430236 C1054.1136,153.806994 1055.91697,144.284204 1055.91697,133.861867 C1055.91697,123.315455 1054.1136,113.792665 1050.50685,105.293498 C1046.9001,96.7943306 1041.89418,89.5669364 1035.48909,83.6113155 C1029.084,77.6556945 1021.4663,73.0649034 1012.63598,69.838942 C1003.80567,66.6129807 994.229125,65 983.906359,65 C973.583594,65 964.038146,66.6129807 955.270014,69.838942 C946.501882,73.0649034 938.915272,77.6556945 932.510183,83.6113155 C926.105093,89.5669364 921.099174,96.7943306 917.492425,105.293498 C913.885676,113.792665 912.082301,123.315455 912.082301,133.861867 C912.082301,144.284204 913.885676,153.806994 917.492425,162.430236 C921.099174,171.053479 926.105093,178.435968 932.510183,184.577702 C938.915272,190.719436 946.501882,195.465321 955.270014,198.815358 C964.038146,202.165395 973.583594,203.840413 983.906359,203.840413 Z M983.407725,175.87256 C977.858548,175.87256 972.802631,174.839344 968.239974,172.772912 C963.677317,170.70648 959.762065,167.857308 956.494216,164.225397 C953.226367,160.593486 950.66758,156.241455 948.817854,151.169303 C946.968128,146.097152 946.043265,140.555357 946.043265,134.543918 C946.043265,128.782955 946.9373,123.397708 948.725368,118.388176 C950.513436,113.378643 953.072223,109.089231 956.40173,105.519939 C959.731236,101.950647 963.677317,99.1327853 968.239974,97.0663531 C972.802631,94.999921 977.858548,93.9667049 983.407725,93.9667049 C988.956902,93.9667049 994.043648,94.999921 998.667962,97.0663531 C1003.29228,99.1327853 1007.23836,101.950647 1010.50621,105.519939 C1013.77406,109.089231 1016.33284,113.378643 1018.18257,118.388176 C1020.03229,123.397708 1020.95716,128.782955 1020.95716,134.543918 C1020.95716,140.555357 1020.03229,146.097152 1018.18257,151.169303 C1016.33284,156.241455 1013.74323,160.593486 1010.41372,164.225397 C1007.08421,167.857308 1003.13813,170.70648 998.575476,172.772912 C994.012819,174.839344 988.956902,175.87256 983.407725,175.87256 Z M1105.91019,200.843858 L1105.16445,106.837504 L1105.72375,106.837504 L1139.09578,200.843858 L1161.46809,200.843858 L1195.77229,106.837504 L1196.3316,106.837504 L1195.58585,200.843858 L1226.72065,200.843858 L1226.72065,67.9965557 L1180.67098,67.9965557 L1151.95986,153.18395 L1151.21411,153.18395 L1121.19793,67.9965557 L1075.89401,67.9965557 L1075.89401,200.843858 L1105.91019,200.843858 Z" id="HEX.COM" fill="#FFFFFF"></path>
        </g>
    </g>
</svg>