<svg width="404" height="305" viewBox="0 0 404 305" fill="none" xmlns="http://www.w3.org/2000/svg">
<g filter="url(#filter0_dd_869_23601)">
<g clip-path="url(#clip0_869_23601)">
<rect x="7" y="3.5" width="389.333" height="290" rx="6" fill="white"/>
<rect x="31" y="27.5" width="42" height="18" rx="9" fill="#12B76A"/>
<rect x="81" y="27.5" width="80" height="18" rx="9" fill="#70707B"/>
<rect x="31" y="65.5" width="49" height="49" rx="8" fill="#E4E4E7"/>
<rect x="31.5" y="66" width="48" height="48" rx="7.5" stroke="white" stroke-opacity="0.16"/>
<rect x="96" y="72" width="73" height="14" rx="7" fill="#E6E6E6"/>
<rect width="1" height="14" transform="translate(177 72)" fill="#E4E4E7"/>
<rect x="186" y="72" width="186.333" height="14" rx="7" fill="#E6E6E6"/>
<rect x="96" y="94" width="186.333" height="14" rx="7" fill="#E6E6E6"/>
<rect width="389.333" height="1" transform="translate(7 138.5)" fill="#E4E4E7"/>
<path d="M36.784 168.772C37.6 168.772 38.3227 168.943 38.952 169.284C39.5813 169.62 40.088 170.071 40.472 170.636C40.856 171.201 41.0827 171.823 41.152 172.5H39.576C39.4907 172.047 39.328 171.636 39.088 171.268C38.848 170.9 38.5333 170.607 38.144 170.388C37.7547 170.169 37.288 170.06 36.744 170.06C36.0453 170.06 35.4533 170.225 34.968 170.556C34.488 170.881 34.1227 171.385 33.872 172.068C33.6267 172.751 33.504 173.625 33.504 174.692C33.504 176.303 33.7787 177.487 34.328 178.244C34.8827 178.996 35.688 179.372 36.744 179.372C37.288 179.372 37.7547 179.257 38.144 179.028C38.5333 178.799 38.848 178.492 39.088 178.108C39.328 177.724 39.4907 177.308 39.576 176.86H41.152C41.0933 177.351 40.96 177.825 40.752 178.284C40.5493 178.737 40.2693 179.143 39.912 179.5C39.5547 179.857 39.1147 180.14 38.592 180.348C38.0747 180.556 37.472 180.66 36.784 180.66C35.744 180.66 34.856 180.423 34.12 179.948C33.3893 179.473 32.8293 178.791 32.44 177.9C32.056 177.009 31.864 175.935 31.864 174.676C31.864 173.423 32.056 172.356 32.44 171.476C32.824 170.596 33.3813 169.927 34.112 169.468C34.848 169.004 35.7387 168.772 36.784 168.772ZM45.4183 180.66C44.8849 180.66 44.4129 180.567 44.0023 180.38C43.5916 180.188 43.2689 179.913 43.0343 179.556C42.8049 179.199 42.6903 178.767 42.6903 178.26C42.6903 177.343 43.0103 176.66 43.6503 176.212C44.2903 175.764 45.3169 175.524 46.7303 175.492L48.2103 175.452V174.804C48.2103 174.297 48.0583 173.897 47.7543 173.604C47.4503 173.305 46.9783 173.156 46.3383 173.156C45.8636 173.161 45.4449 173.273 45.0823 173.492C44.7249 173.711 44.4929 174.068 44.3863 174.564H43.0822C43.1143 174.025 43.2663 173.572 43.5383 173.204C43.8103 172.831 44.1889 172.548 44.6743 172.356C45.1649 172.164 45.7436 172.068 46.4103 172.068C47.1303 172.068 47.7276 172.169 48.2023 172.372C48.6823 172.575 49.0396 172.873 49.2743 173.268C49.5143 173.663 49.6343 174.148 49.6343 174.724V180.5H48.3703L48.2663 178.948C47.9463 179.593 47.5383 180.041 47.0423 180.292C46.5516 180.537 46.0103 180.66 45.4183 180.66ZM45.8663 179.596C46.1436 179.596 46.4183 179.545 46.6903 179.444C46.9676 179.343 47.2209 179.207 47.4503 179.036C47.6796 178.86 47.8609 178.665 47.9943 178.452C48.1329 178.233 48.2049 178.009 48.2103 177.78V176.364L46.9783 176.388C46.3489 176.399 45.8209 176.463 45.3943 176.58C44.9729 176.697 44.6556 176.881 44.4423 177.132C44.2343 177.383 44.1303 177.711 44.1303 178.116C44.1303 178.58 44.2903 178.943 44.6103 179.204C44.9356 179.465 45.3543 179.596 45.8663 179.596ZM52.1615 183.076V172.228H53.6335L53.6495 173.668C53.7455 173.497 53.8682 173.319 54.0175 173.132C54.1722 172.945 54.3588 172.772 54.5775 172.612C54.8015 172.452 55.0602 172.321 55.3535 172.22C55.6522 172.119 55.9908 172.068 56.3695 172.068C57.0308 172.068 57.6122 172.22 58.1135 172.524C58.6202 172.823 59.0148 173.281 59.2975 173.9C59.5802 174.519 59.7215 175.303 59.7215 176.252C59.7215 177.201 59.5828 178.004 59.3055 178.66C59.0335 179.311 58.6388 179.807 58.1215 180.148C57.6042 180.489 56.9802 180.66 56.2495 180.66C55.8815 180.66 55.5535 180.607 55.2655 180.5C54.9828 180.399 54.7348 180.265 54.5215 180.1C54.3135 179.929 54.1375 179.748 53.9935 179.556C53.8548 179.364 53.7402 179.18 53.6495 179.004V183.076H52.1615ZM55.9695 179.508C56.6522 179.508 57.2095 179.249 57.6415 178.732C58.0735 178.209 58.2895 177.399 58.2895 176.3C58.2895 175.356 58.0922 174.607 57.6975 174.052C57.3028 173.497 56.7268 173.22 55.9695 173.22C55.2015 173.22 54.6202 173.505 54.2255 174.076C53.8308 174.641 53.6335 175.383 53.6335 176.3C53.6335 176.892 53.7215 177.431 53.8975 177.916C54.0735 178.401 54.3348 178.788 54.6815 179.076C55.0282 179.364 55.4575 179.508 55.9695 179.508ZM63.8558 180.66C63.3224 180.66 62.8504 180.567 62.4398 180.38C62.0291 180.188 61.7064 179.913 61.4718 179.556C61.2424 179.199 61.1278 178.767 61.1278 178.26C61.1278 177.343 61.4478 176.66 62.0878 176.212C62.7278 175.764 63.7544 175.524 65.1678 175.492L66.6478 175.452V174.804C66.6478 174.297 66.4958 173.897 66.1918 173.604C65.8878 173.305 65.4158 173.156 64.7758 173.156C64.3011 173.161 63.8824 173.273 63.5198 173.492C63.1624 173.711 62.9304 174.068 62.8238 174.564H61.5197C61.5518 174.025 61.7038 173.572 61.9758 173.204C62.2478 172.831 62.6264 172.548 63.1118 172.356C63.6024 172.164 64.1811 172.068 64.8478 172.068C65.5678 172.068 66.1651 172.169 66.6398 172.372C67.1198 172.575 67.4771 172.873 67.7118 173.268C67.9518 173.663 68.0718 174.148 68.0718 174.724V180.5H66.8078L66.7038 178.948C66.3838 179.593 65.9758 180.041 65.4798 180.292C64.9891 180.537 64.4478 180.66 63.8558 180.66ZM64.3038 179.596C64.5811 179.596 64.8558 179.545 65.1278 179.444C65.4051 179.343 65.6584 179.207 65.8878 179.036C66.1171 178.86 66.2984 178.665 66.4318 178.452C66.5704 178.233 66.6424 178.009 66.6478 177.78V176.364L65.4158 176.388C64.7864 176.399 64.2584 176.463 63.8318 176.58C63.4104 176.697 63.0931 176.881 62.8798 177.132C62.6718 177.383 62.5678 177.711 62.5678 178.116C62.5678 178.58 62.7278 178.943 63.0478 179.204C63.3731 179.465 63.7918 179.596 64.3038 179.596ZM73.895 172.068C74.487 172.068 75.0203 172.183 75.495 172.412C75.9697 172.636 76.3563 172.956 76.655 173.372C76.959 173.788 77.1483 174.279 77.223 174.844H75.911C75.863 174.556 75.751 174.292 75.575 174.052C75.4043 173.812 75.1777 173.62 74.895 173.476C74.6123 173.332 74.2817 173.26 73.903 173.26C73.1937 173.26 72.6177 173.516 72.175 174.028C71.7323 174.54 71.511 175.324 71.511 176.38C71.511 177.335 71.7137 178.1 72.119 178.676C72.5297 179.247 73.1323 179.532 73.927 179.532C74.3057 179.532 74.6337 179.46 74.911 179.316C75.1937 179.167 75.4203 178.972 75.591 178.732C75.7617 178.487 75.871 178.225 75.919 177.948H77.207C77.1377 178.503 76.951 178.983 76.647 179.388C76.343 179.793 75.9537 180.108 75.479 180.332C75.0097 180.551 74.4817 180.66 73.895 180.66C73.1537 180.66 72.495 180.497 71.919 180.172C71.3483 179.847 70.9003 179.367 70.575 178.732C70.2497 178.097 70.087 177.319 70.087 176.396C70.087 175.532 70.2337 174.777 70.527 174.132C70.8257 173.481 71.2577 172.975 71.823 172.612C72.3937 172.249 73.0843 172.068 73.895 172.068ZM80.824 172.228V180.5H79.392V172.228H80.824ZM80.856 168.94V170.476H79.344V168.94H80.856ZM87.7391 173.308H85.8751V178.452C85.8751 178.745 85.9045 178.961 85.9631 179.1C86.0271 179.233 86.1311 179.319 86.2751 179.356C86.4245 179.393 86.6271 179.412 86.8831 179.412H87.7871V180.404C87.6858 180.441 87.5311 180.473 87.3231 180.5C87.1205 180.527 86.8671 180.54 86.5631 180.54C85.9925 180.54 85.5498 180.463 85.2351 180.308C84.9205 180.153 84.6991 179.924 84.5711 179.62C84.4485 179.316 84.3871 178.943 84.3871 178.5V173.308H83.0431V172.228H84.4271L84.7871 169.82H85.8751V172.22H87.7391V173.308ZM90.7275 183.14C90.2422 183.14 89.9088 183.105 89.7275 183.036C89.5462 182.967 89.4555 182.932 89.4555 182.932V181.972L90.2955 181.988C90.6048 181.999 90.8608 181.977 91.0635 181.924C91.2662 181.871 91.4288 181.799 91.5515 181.708C91.6742 181.617 91.7675 181.516 91.8315 181.404C91.9008 181.292 91.9568 181.185 91.9995 181.084L92.2875 180.3L89.0555 172.228H90.5515L92.9915 178.612L95.4155 172.228H96.8635L93.3755 181.124C93.1622 181.647 92.9222 182.055 92.6555 182.348C92.3942 182.641 92.1008 182.847 91.7755 182.964C91.4555 183.081 91.1062 183.14 90.7275 183.14Z" fill="#51525C"/>
<rect x="305.333" y="166.5" width="67" height="16" rx="8" fill="#E6E6E6"/>
<path d="M31.664 222.5L35.848 210.932H37.52L41.704 222.5H40.192L39.056 219.332H34.328L33.168 222.5H31.664ZM34.704 217.972H38.664L36.696 212.396L34.704 217.972ZM43.8874 222.5V210.932H47.7994C48.626 210.932 49.362 211.071 50.0074 211.348C50.6527 211.625 51.1594 212.036 51.5274 212.58C51.9007 213.124 52.0874 213.793 52.0874 214.588C52.0874 215.356 51.914 216.012 51.5674 216.556C51.226 217.1 50.7487 217.513 50.1354 217.796C49.522 218.079 48.81 218.22 47.9994 218.22H45.4074V222.5H43.8874ZM45.3994 216.972H47.9674C48.762 216.972 49.4074 216.751 49.9034 216.308C50.3994 215.865 50.6474 215.263 50.6474 214.5C50.6474 213.732 50.3914 213.151 49.8794 212.756C49.3674 212.361 48.706 212.164 47.8954 212.164H45.3994V216.972ZM61.903 210.932L57.983 217.58V222.5H56.511V217.572L52.567 210.932H54.183L57.255 216.252L60.279 210.932H61.903Z" fill="#51525C"/>
<rect x="305.333" y="208.5" width="67" height="16" rx="8" fill="#E6E6E6"/>
<path d="M32.528 252.932H34.008V264.5H32.528V252.932ZM36.7553 264.5V256.228H38.1873V257.428C38.3206 257.199 38.5046 256.983 38.7393 256.78C38.9793 256.577 39.2673 256.415 39.6033 256.292C39.9446 256.169 40.3366 256.108 40.7793 256.108C41.3019 256.108 41.7819 256.212 42.2193 256.42C42.6619 256.628 43.0139 256.953 43.2753 257.396C43.5419 257.833 43.6753 258.399 43.6753 259.092V264.5H42.1953V259.236C42.1953 258.591 42.0246 258.113 41.6833 257.804C41.3473 257.489 40.9099 257.332 40.3713 257.332C39.9979 257.332 39.6486 257.393 39.3233 257.516C38.9979 257.633 38.7339 257.815 38.5313 258.06C38.3286 258.3 38.2273 258.604 38.2273 258.972V264.5H36.7553ZM49.8016 257.308H47.9376V262.452C47.9376 262.745 47.967 262.961 48.0256 263.1C48.0896 263.233 48.1936 263.319 48.3376 263.356C48.487 263.393 48.6896 263.412 48.9456 263.412H49.8496V264.404C49.7483 264.441 49.5936 264.473 49.3856 264.5C49.183 264.527 48.9296 264.54 48.6256 264.54C48.055 264.54 47.6123 264.463 47.2976 264.308C46.983 264.153 46.7616 263.924 46.6336 263.62C46.511 263.316 46.4496 262.943 46.4496 262.5V257.308H45.1056V256.228H46.4896L46.8496 253.82H47.9376V256.22H49.8016V257.308ZM52.7644 260.708C52.7644 261.231 52.8497 261.705 53.0204 262.132C53.1964 262.553 53.4604 262.889 53.8124 263.14C54.1697 263.391 54.615 263.516 55.1484 263.516C55.6764 263.516 56.1297 263.393 56.5084 263.148C56.8924 262.903 57.1377 262.548 57.2444 262.084H58.6444C58.543 262.644 58.319 263.116 57.9724 263.5C57.6257 263.884 57.207 264.175 56.7164 264.372C56.2257 264.564 55.7137 264.66 55.1804 264.66C54.407 264.66 53.727 264.492 53.1404 264.156C52.5537 263.82 52.095 263.337 51.7644 262.708C51.4337 262.079 51.2684 261.324 51.2684 260.444C51.2684 259.575 51.4177 258.812 51.7164 258.156C52.015 257.5 52.447 256.988 53.0124 256.62C53.583 256.252 54.2684 256.068 55.0684 256.068C55.847 256.068 56.5057 256.236 57.0444 256.572C57.583 256.908 57.991 257.383 58.2684 257.996C58.551 258.604 58.6924 259.327 58.6924 260.164V260.708H52.7644ZM52.7724 259.708H57.2684C57.2684 259.233 57.1884 258.807 57.0284 258.428C56.8684 258.044 56.623 257.743 56.2924 257.524C55.967 257.3 55.5564 257.188 55.0604 257.188C54.543 257.188 54.1137 257.313 53.7724 257.564C53.4364 257.809 53.183 258.127 53.0124 258.516C52.847 258.9 52.767 259.297 52.7724 259.708ZM60.724 264.5V256.228H62.132V257.82C62.2707 257.425 62.4653 257.1 62.716 256.844C62.9667 256.583 63.252 256.388 63.572 256.26C63.8973 256.132 64.2333 256.068 64.58 256.068C64.7027 256.068 64.8227 256.076 64.94 256.092C65.0573 256.108 65.148 256.135 65.212 256.172V257.604C65.132 257.567 65.028 257.543 64.9 257.532C64.7773 257.516 64.6733 257.508 64.588 257.508C64.2573 257.487 63.948 257.508 63.66 257.572C63.372 257.631 63.1187 257.735 62.9 257.884C62.6813 258.033 62.508 258.231 62.38 258.476C62.2573 258.716 62.196 259.009 62.196 259.356V264.5H60.724ZM67.8113 260.708C67.8113 261.231 67.8966 261.705 68.0673 262.132C68.2433 262.553 68.5073 262.889 68.8593 263.14C69.2166 263.391 69.6619 263.516 70.1953 263.516C70.7233 263.516 71.1766 263.393 71.5553 263.148C71.9393 262.903 72.1846 262.548 72.2913 262.084H73.6913C73.5899 262.644 73.3659 263.116 73.0193 263.5C72.6726 263.884 72.2539 264.175 71.7633 264.372C71.2726 264.564 70.7606 264.66 70.2273 264.66C69.4539 264.66 68.7739 264.492 68.1873 264.156C67.6006 263.82 67.1419 263.337 66.8113 262.708C66.4806 262.079 66.3153 261.324 66.3153 260.444C66.3153 259.575 66.4646 258.812 66.7633 258.156C67.0619 257.5 67.4939 256.988 68.0593 256.62C68.6299 256.252 69.3153 256.068 70.1153 256.068C70.8939 256.068 71.5526 256.236 72.0913 256.572C72.6299 256.908 73.0379 257.383 73.3153 257.996C73.5979 258.604 73.7393 259.327 73.7393 260.164V260.708H67.8113ZM67.8193 259.708H72.3153C72.3153 259.233 72.2353 258.807 72.0753 258.428C71.9153 258.044 71.6699 257.743 71.3393 257.524C71.0139 257.3 70.6033 257.188 70.1073 257.188C69.5899 257.188 69.1606 257.313 68.8193 257.564C68.4833 257.809 68.2299 258.127 68.0593 258.516C67.8939 258.9 67.8139 259.297 67.8193 259.708ZM78.66 264.66C78.084 264.66 77.548 264.572 77.052 264.396C76.5613 264.215 76.1533 263.935 75.828 263.556C75.5027 263.172 75.2973 262.684 75.212 262.092H76.556C76.6307 262.417 76.764 262.689 76.956 262.908C77.1533 263.121 77.3987 263.284 77.692 263.396C77.9853 263.503 78.3053 263.556 78.652 263.556C79.2067 263.556 79.6547 263.452 79.996 263.244C80.3373 263.036 80.508 262.716 80.508 262.284C80.508 261.98 80.4173 261.737 80.236 261.556C80.06 261.369 79.7853 261.233 79.412 261.148L77.7 260.724C77.0333 260.564 76.5 260.313 76.1 259.972C75.7 259.631 75.5 259.153 75.5 258.54C75.4947 258.055 75.6093 257.628 75.844 257.26C76.0787 256.892 76.4307 256.601 76.9 256.388C77.3693 256.175 77.9533 256.068 78.652 256.068C79.548 256.068 80.2707 256.271 80.82 256.676C81.3747 257.076 81.6627 257.665 81.684 258.444H80.38C80.3267 258.049 80.148 257.737 79.844 257.508C79.5453 257.273 79.1427 257.156 78.636 257.156C78.108 257.156 77.6787 257.263 77.348 257.476C77.0173 257.684 76.852 258.009 76.852 258.452C76.852 258.745 76.9693 258.977 77.204 259.148C77.4387 259.313 77.7853 259.452 78.244 259.564L79.9 259.98C80.284 260.081 80.5987 260.215 80.844 260.38C81.0947 260.545 81.292 260.729 81.436 260.932C81.5853 261.135 81.6893 261.348 81.748 261.572C81.812 261.791 81.844 262.001 81.844 262.204C81.844 262.711 81.716 263.148 81.46 263.516C81.2093 263.879 80.8467 264.161 80.372 264.364C79.9027 264.561 79.332 264.66 78.66 264.66ZM87.9266 257.308H86.0626V262.452C86.0626 262.745 86.092 262.961 86.1506 263.1C86.2146 263.233 86.3186 263.319 86.4626 263.356C86.612 263.393 86.8146 263.412 87.0706 263.412H87.9746V264.404C87.8733 264.441 87.7186 264.473 87.5106 264.5C87.308 264.527 87.0546 264.54 86.7506 264.54C86.18 264.54 85.7373 264.463 85.4226 264.308C85.108 264.153 84.8866 263.924 84.7586 263.62C84.636 263.316 84.5746 262.943 84.5746 262.5V257.308H83.2306V256.228H84.6146L84.9746 253.82H86.0626V256.22H87.9266V257.308ZM98.2996 252.772C99.1156 252.772 99.8383 252.943 100.468 253.284C101.097 253.62 101.604 254.071 101.988 254.636C102.372 255.201 102.598 255.823 102.668 256.5H101.092C101.006 256.047 100.844 255.636 100.604 255.268C100.364 254.9 100.049 254.607 99.6596 254.388C99.2703 254.169 98.8036 254.06 98.2596 254.06C97.561 254.06 96.969 254.225 96.4836 254.556C96.0036 254.881 95.6383 255.385 95.3876 256.068C95.1423 256.751 95.0196 257.625 95.0196 258.692C95.0196 260.303 95.2943 261.487 95.8436 262.244C96.3983 262.996 97.2036 263.372 98.2596 263.372C98.8036 263.372 99.2703 263.257 99.6596 263.028C100.049 262.799 100.364 262.492 100.604 262.108C100.844 261.724 101.006 261.308 101.092 260.86H102.668C102.609 261.351 102.476 261.825 102.268 262.284C102.065 262.737 101.785 263.143 101.428 263.5C101.07 263.857 100.63 264.14 100.108 264.348C99.5903 264.556 98.9876 264.66 98.2996 264.66C97.2596 264.66 96.3716 264.423 95.6356 263.948C94.905 263.473 94.345 262.791 93.9556 261.9C93.5716 261.009 93.3796 259.935 93.3796 258.676C93.3796 257.423 93.5716 256.356 93.9556 255.476C94.3396 254.596 94.897 253.927 95.6276 253.468C96.3636 253.004 97.2543 252.772 98.2996 252.772ZM106.843 264.604C106.395 264.604 106.033 264.543 105.755 264.42C105.483 264.297 105.273 264.132 105.123 263.924C104.979 263.716 104.881 263.479 104.827 263.212C104.779 262.94 104.755 262.66 104.755 262.372V252.612H106.211V262.228C106.211 262.644 106.291 262.956 106.451 263.164C106.617 263.372 106.846 263.487 107.139 263.508L107.587 263.516V264.476C107.465 264.513 107.337 264.543 107.203 264.564C107.07 264.591 106.95 264.604 106.843 264.604ZM111.731 264.66C111.197 264.66 110.725 264.567 110.315 264.38C109.904 264.188 109.581 263.913 109.347 263.556C109.117 263.199 109.003 262.767 109.003 262.26C109.003 261.343 109.323 260.66 109.963 260.212C110.603 259.764 111.629 259.524 113.043 259.492L114.523 259.452V258.804C114.523 258.297 114.371 257.897 114.067 257.604C113.763 257.305 113.291 257.156 112.651 257.156C112.176 257.161 111.757 257.273 111.395 257.492C111.037 257.711 110.805 258.068 110.699 258.564H109.395C109.427 258.025 109.579 257.572 109.851 257.204C110.123 256.831 110.501 256.548 110.987 256.356C111.477 256.164 112.056 256.068 112.723 256.068C113.443 256.068 114.04 256.169 114.515 256.372C114.995 256.575 115.352 256.873 115.587 257.268C115.827 257.663 115.947 258.148 115.947 258.724V264.5H114.683L114.579 262.948C114.259 263.593 113.851 264.041 113.355 264.292C112.864 264.537 112.323 264.66 111.731 264.66ZM112.179 263.596C112.456 263.596 112.731 263.545 113.003 263.444C113.28 263.343 113.533 263.207 113.763 263.036C113.992 262.86 114.173 262.665 114.307 262.452C114.445 262.233 114.517 262.009 114.523 261.78V260.364L113.291 260.388C112.661 260.399 112.133 260.463 111.707 260.58C111.285 260.697 110.968 260.881 110.755 261.132C110.547 261.383 110.443 261.711 110.443 262.116C110.443 262.58 110.603 262.943 110.923 263.204C111.248 263.465 111.667 263.596 112.179 263.596ZM120.074 256.228V264.5H118.642V256.228H120.074ZM120.106 252.94V254.476H118.594V252.94H120.106ZM122.771 264.5V256.228H124.195V257.428C124.424 257.065 124.739 256.748 125.139 256.476C125.539 256.204 126.059 256.068 126.699 256.068C126.998 256.068 127.302 256.119 127.611 256.22C127.926 256.321 128.214 256.473 128.475 256.676C128.736 256.879 128.939 257.127 129.083 257.42C129.339 257.015 129.686 256.689 130.123 256.444C130.56 256.193 131.054 256.068 131.603 256.068C131.891 256.068 132.192 256.113 132.507 256.204C132.822 256.289 133.112 256.444 133.379 256.668C133.651 256.887 133.872 257.193 134.043 257.588C134.214 257.977 134.299 258.479 134.299 259.092V264.5H132.811V259.236C132.811 258.735 132.731 258.348 132.571 258.076C132.411 257.799 132.2 257.604 131.939 257.492C131.683 257.38 131.408 257.324 131.115 257.324C130.859 257.324 130.587 257.375 130.299 257.476C130.011 257.577 129.766 257.748 129.563 257.988C129.36 258.228 129.259 258.556 129.259 258.972V264.5H127.787V258.804C127.787 258.479 127.699 258.207 127.523 257.988C127.352 257.769 127.136 257.604 126.875 257.492C126.619 257.38 126.363 257.324 126.107 257.324C125.824 257.324 125.539 257.38 125.251 257.492C124.968 257.604 124.728 257.783 124.531 258.028C124.339 258.268 124.243 258.583 124.243 258.972V264.5H122.771ZM138.871 264.66C138.338 264.66 137.866 264.567 137.455 264.38C137.045 264.188 136.722 263.913 136.487 263.556C136.258 263.199 136.143 262.767 136.143 262.26C136.143 261.343 136.463 260.66 137.103 260.212C137.743 259.764 138.77 259.524 140.183 259.492L141.663 259.452V258.804C141.663 258.297 141.511 257.897 141.207 257.604C140.903 257.305 140.431 257.156 139.791 257.156C139.317 257.161 138.898 257.273 138.535 257.492C138.178 257.711 137.946 258.068 137.839 258.564H136.535C136.567 258.025 136.719 257.572 136.991 257.204C137.263 256.831 137.642 256.548 138.127 256.356C138.618 256.164 139.197 256.068 139.863 256.068C140.583 256.068 141.181 256.169 141.655 256.372C142.135 256.575 142.493 256.873 142.727 257.268C142.967 257.663 143.087 258.148 143.087 258.724V264.5H141.823L141.719 262.948C141.399 263.593 140.991 264.041 140.495 264.292C140.005 264.537 139.463 264.66 138.871 264.66ZM139.319 263.596C139.597 263.596 139.871 263.545 140.143 263.444C140.421 263.343 140.674 263.207 140.903 263.036C141.133 262.86 141.314 262.665 141.447 262.452C141.586 262.233 141.658 262.009 141.663 261.78V260.364L140.431 260.388C139.802 260.399 139.274 260.463 138.847 260.58C138.426 260.697 138.109 260.881 137.895 261.132C137.687 261.383 137.583 261.711 137.583 262.116C137.583 262.58 137.743 262.943 138.063 263.204C138.389 263.465 138.807 263.596 139.319 263.596ZM149.703 264.66C149.217 264.66 148.807 264.596 148.471 264.468C148.14 264.34 147.868 264.177 147.655 263.98C147.441 263.777 147.276 263.572 147.159 263.364C147.041 263.151 146.956 262.964 146.903 262.804L146.743 264.5H145.615V252.612H147.103V257.54C147.172 257.401 147.276 257.249 147.415 257.084C147.559 256.919 147.743 256.759 147.967 256.604C148.191 256.449 148.455 256.321 148.759 256.22C149.068 256.119 149.42 256.068 149.815 256.068C150.849 256.068 151.671 256.428 152.279 257.148C152.892 257.868 153.199 258.929 153.199 260.332C153.199 261.201 153.068 261.961 152.807 262.612C152.545 263.257 152.156 263.761 151.639 264.124C151.121 264.481 150.476 264.66 149.703 264.66ZM149.439 263.524C150.111 263.524 150.657 263.265 151.079 262.748C151.5 262.225 151.711 261.396 151.711 260.26C151.711 259.295 151.513 258.548 151.119 258.02C150.729 257.487 150.159 257.22 149.407 257.22C148.857 257.22 148.415 257.34 148.079 257.58C147.748 257.815 147.503 258.159 147.343 258.612C147.188 259.065 147.108 259.615 147.103 260.26C147.103 261.417 147.281 262.252 147.639 262.764C148.001 263.271 148.601 263.524 149.439 263.524ZM157.218 264.604C156.77 264.604 156.408 264.543 156.13 264.42C155.858 264.297 155.648 264.132 155.498 263.924C155.354 263.716 155.256 263.479 155.202 263.212C155.154 262.94 155.13 262.66 155.13 262.372V252.612H156.586V262.228C156.586 262.644 156.666 262.956 156.826 263.164C156.992 263.372 157.221 263.487 157.514 263.508L157.962 263.516V264.476C157.84 264.513 157.712 264.543 157.578 264.564C157.445 264.591 157.325 264.604 157.218 264.604ZM160.827 260.708C160.827 261.231 160.912 261.705 161.083 262.132C161.259 262.553 161.523 262.889 161.875 263.14C162.232 263.391 162.678 263.516 163.211 263.516C163.739 263.516 164.192 263.393 164.571 263.148C164.955 262.903 165.2 262.548 165.307 262.084H166.707C166.606 262.644 166.382 263.116 166.035 263.5C165.688 263.884 165.27 264.175 164.779 264.372C164.288 264.564 163.776 264.66 163.243 264.66C162.47 264.66 161.79 264.492 161.203 264.156C160.616 263.82 160.158 263.337 159.827 262.708C159.496 262.079 159.331 261.324 159.331 260.444C159.331 259.575 159.48 258.812 159.779 258.156C160.078 257.5 160.51 256.988 161.075 256.62C161.646 256.252 162.331 256.068 163.131 256.068C163.91 256.068 164.568 256.236 165.107 256.572C165.646 256.908 166.054 257.383 166.331 257.996C166.614 258.604 166.755 259.327 166.755 260.164V260.708H160.827ZM160.835 259.708H165.331C165.331 259.233 165.251 258.807 165.091 258.428C164.931 258.044 164.686 257.743 164.355 257.524C164.03 257.3 163.619 257.188 163.123 257.188C162.606 257.188 162.176 257.313 161.835 257.564C161.499 257.809 161.246 258.127 161.075 258.516C160.91 258.9 160.83 259.297 160.835 259.708Z" fill="#51525C"/>
<rect x="305.333" y="250.5" width="67" height="16" rx="8" fill="#E6E6E6"/>
</g>
<rect x="6.5" y="3" width="390.333" height="291" rx="6.5" stroke="#E4E4E7"/>
</g>
<defs>
<filter id="filter0_dd_869_23601" x="0" y="0.5" width="403.333" height="304" filterUnits="userSpaceOnUse" color-interpolation-filters="sRGB">
<feFlood flood-opacity="0" result="BackgroundImageFix"/>
<feColorMatrix in="SourceAlpha" type="matrix" values="0 0 0 0 0 0 0 0 0 0 0 0 0 0 0 0 0 0 127 0" result="hardAlpha"/>
<feMorphology radius="2" operator="erode" in="SourceAlpha" result="effect1_dropShadow_869_23601"/>
<feOffset dy="2"/>
<feGaussianBlur stdDeviation="2"/>
<feColorMatrix type="matrix" values="0 0 0 0 0.0627451 0 0 0 0 0.0941176 0 0 0 0 0.156863 0 0 0 0.06 0"/>
<feBlend mode="normal" in2="BackgroundImageFix" result="effect1_dropShadow_869_23601"/>
<feColorMatrix in="SourceAlpha" type="matrix" values="0 0 0 0 0 0 0 0 0 0 0 0 0 0 0 0 0 0 127 0" result="hardAlpha"/>
<feMorphology radius="2" operator="erode" in="SourceAlpha" result="effect2_dropShadow_869_23601"/>
<feOffset dy="4"/>
<feGaussianBlur stdDeviation="4"/>
<feColorMatrix type="matrix" values="0 0 0 0 0.0627451 0 0 0 0 0.0941176 0 0 0 0 0.156863 0 0 0 0.1 0"/>
<feBlend mode="normal" in2="effect1_dropShadow_869_23601" result="effect2_dropShadow_869_23601"/>
<feBlend mode="normal" in="SourceGraphic" in2="effect2_dropShadow_869_23601" result="shape"/>
</filter>
<clipPath id="clip0_869_23601">
<rect x="7" y="3.5" width="389.333" height="290" rx="6" fill="white"/>
</clipPath>
</defs>
</svg>
