<svg width="166" height="20" viewBox="0 0 166 20" fill="none" xmlns="http://www.w3.org/2000/svg">
<path d="M17.0867 0.596321L14.8907 2.79237L13.5097 1.41135C13.2483 1.13556 12.1081 0.0488537 10.3937 0.00151628C9.49424 -0.0231815 8.12351 0.242318 6.71574 1.65009L4.72344 3.64238L7.08001 5.99896L9.07231 4.00667C9.38103 3.69795 9.84206 3.32954 10.2804 3.33366C10.6653 3.33572 10.9967 3.61768 11.0728 3.68972L12.5321 5.14894L7.01004 10.671L2.35657 6.01748L0 8.37407L4.65347 13.0275L2.35863 15.3224L4.7152 17.679L7.01004 15.3841L10.2146 18.5887C10.476 18.8624 11.6162 19.9511 13.3306 19.9985C14.23 20.0232 15.6008 19.7577 17.0085 18.3499L18.9905 16.3679L16.636 14.0113L14.654 15.9933C14.3453 16.3021 13.8843 16.6705 13.4459 16.6663C13.061 16.6643 12.7296 16.3823 12.6535 16.3103L9.37073 13.0275L14.8928 7.50553L21.3697 13.9825L23.7263 11.6259L17.2493 5.14894L19.4454 2.9529L17.0867 0.596321Z" fill="url(#paint0_linear_40_494)"/>
<path d="M95.9591 5.89401V6.88809H88.4263V5.89401H95.9591ZM94.1809 0.462555C94.611 0.462555 94.9856 0.516065 95.3026 0.625147C95.6175 0.732171 95.8686 0.886532 96.0538 1.08823L95.7307 2.01234C95.531 1.82711 95.3149 1.69744 95.0844 1.61923C94.8539 1.54308 94.5843 1.50398 94.2755 1.50398C93.5202 1.50398 92.9357 1.72008 92.5199 2.15024C92.1042 2.58245 91.8963 3.22047 91.8963 4.06843V5.89401V6.30976V17.4485H90.7417V3.95317C90.7417 3.4304 90.8137 2.95086 90.9619 2.5207C91.1081 2.09055 91.3283 1.7242 91.6205 1.42371C91.9128 1.12322 92.275 0.888592 92.7072 0.719823C93.1333 0.548997 93.6252 0.462555 94.1809 0.462555ZM98.8261 3.65268C98.5338 3.65268 98.2992 3.56418 98.1222 3.38718C97.9452 3.21018 97.8567 2.97555 97.8567 2.6833C97.8567 2.39104 97.9452 2.15641 98.1222 1.97941C98.2992 1.80241 98.5338 1.71391 98.8261 1.71391C99.1184 1.71391 99.353 1.80241 99.53 1.97941C99.707 2.15641 99.7955 2.39104 99.7955 2.6833C99.7955 2.97555 99.707 3.21018 99.53 3.38718C99.353 3.56418 99.1184 3.65268 98.8261 3.65268ZM99.4024 5.89401V17.4485H98.2478V5.89401H99.4024Z" fill="black"/>
<path d="M103.517 17.4485V5.89401H104.556L104.649 8.78159L104.463 8.619C104.679 7.98714 105.003 7.44791 105.435 7.00129C105.865 6.55467 106.382 6.2192 106.983 5.99692C107.584 5.77464 108.23 5.66144 108.923 5.66144C109.786 5.66144 110.549 5.82403 111.212 6.14716C111.875 6.47029 112.393 6.94778 112.772 7.57963C113.149 8.21149 113.338 9.00387 113.338 9.96091V17.4485H112.183V10.3314C112.183 9.06767 111.871 8.14357 111.247 7.55905C110.623 6.97454 109.81 6.68022 108.81 6.68022C108.086 6.68022 107.413 6.84487 106.789 7.17624C106.165 7.5076 105.657 7.9892 105.264 8.62106C104.871 9.25291 104.675 10.0227 104.675 10.9324V17.4485H103.517Z" fill="black"/>
<path d="M124.405 9.84564C124.405 8.84332 124.135 8.06534 123.596 7.5117C123.057 6.956 122.287 6.68021 121.285 6.68021C120.406 6.68021 119.65 6.86956 119.021 7.2462C118.389 7.62284 117.92 8.25058 117.611 9.12941L116.664 8.52843C117.004 7.61873 117.57 6.91484 118.362 6.41471C119.154 5.91458 120.138 5.66348 121.309 5.66348C122.157 5.66348 122.9 5.81373 123.538 6.11422C124.178 6.41471 124.674 6.85721 125.028 7.44378C125.382 8.0283 125.559 8.761 125.559 9.63983V15.4171C125.559 16.2341 125.93 16.6416 126.669 16.6416C126.992 16.6416 127.27 16.5881 127.5 16.4791L127.43 17.4032C127.169 17.5411 126.829 17.611 126.414 17.611C126.06 17.611 125.728 17.5411 125.419 17.4032C125.111 17.2653 124.862 17.0327 124.668 16.7096C124.475 16.3864 124.38 15.946 124.38 15.3924V14.7687L124.703 14.7461C124.565 15.4088 124.261 15.9583 123.791 16.3988C123.322 16.8372 122.779 17.1624 122.161 17.3702C121.546 17.5781 120.929 17.6831 120.313 17.6831C119.589 17.6831 118.942 17.5678 118.372 17.3373C117.802 17.1068 117.356 16.7713 117.032 16.3329C116.709 15.8945 116.547 15.3512 116.547 14.7029C116.547 13.8405 116.835 13.1428 117.413 12.6118C117.992 12.0808 118.802 11.7144 119.85 11.5148L124.633 10.5681V11.5374L120.428 12.3689C119.519 12.5542 118.842 12.8238 118.395 13.1778C117.948 13.5318 117.724 14.0093 117.724 14.6103C117.724 15.2565 117.963 15.7628 118.44 16.123C118.918 16.4852 119.595 16.6663 120.474 16.6663C120.92 16.6663 121.375 16.6046 121.836 16.4811C122.299 16.3576 122.725 16.1621 123.118 15.8925C123.512 15.6229 123.822 15.2833 124.055 14.8758C124.285 14.4682 124.401 13.9702 124.401 13.3857V9.84564H124.405Z" fill="black"/>
<path d="M129.882 17.4485V5.89401H130.921L131.013 8.78159L130.828 8.619C131.044 7.98714 131.367 7.44791 131.8 7.00129C132.23 6.55467 132.746 6.2192 133.347 5.99692C133.948 5.77464 134.595 5.66144 135.288 5.66144C136.151 5.66144 136.914 5.82403 137.577 6.14716C138.24 6.47029 138.758 6.94778 139.137 7.57963C139.514 8.21149 139.703 9.00387 139.703 9.96091V17.4485H138.548V10.3314C138.548 9.06767 138.236 8.14357 137.612 7.55905C136.988 6.97454 136.175 6.68022 135.175 6.68022C134.451 6.68022 133.778 6.84487 133.154 7.17624C132.53 7.5076 132.022 7.9892 131.629 8.62106C131.236 9.25291 131.04 10.0227 131.04 10.9324V17.4485H129.882Z" fill="black"/>
<path d="M148.368 5.66348C149.154 5.66348 149.854 5.78697 150.471 6.03395C151.087 6.28093 151.611 6.63493 152.042 7.09801C152.472 7.5611 152.805 8.12297 153.036 8.7857L151.949 9.29406C151.702 8.46257 151.274 7.81837 150.667 7.36352C150.058 6.90866 149.284 6.68227 148.345 6.68227C147.497 6.68227 146.75 6.87779 146.104 7.2709C145.458 7.66401 144.955 8.23411 144.601 8.98122C144.247 9.72833 144.07 10.6257 144.07 11.6733C144.07 12.7065 144.247 13.5997 144.601 14.353C144.955 15.1083 145.449 15.6826 146.081 16.0736C146.713 16.4667 147.46 16.6622 148.323 16.6622C148.969 16.6622 149.559 16.5552 150.09 16.3391C150.621 16.123 151.062 15.8081 151.408 15.3924C151.753 14.9766 151.982 14.4827 152.089 13.9125L153.153 14.283C152.953 14.991 152.624 15.6002 152.171 16.1086C151.716 16.6169 151.167 17.0059 150.519 17.2756C149.87 17.5452 149.148 17.679 148.347 17.679C147.3 17.679 146.363 17.4402 145.54 16.9627C144.715 16.4852 144.072 15.7957 143.609 14.8943C143.146 13.9928 142.916 12.9185 142.916 11.6712C142.916 10.424 143.15 9.34963 143.62 8.44816C144.089 7.54669 144.737 6.85721 145.56 6.37972C146.386 5.90223 147.32 5.66348 148.368 5.66348Z" fill="black"/>
<path d="M160.964 17.679C159.9 17.679 158.953 17.4402 158.121 16.9627C157.29 16.4852 156.637 15.7957 156.168 14.8943C155.699 13.9928 155.464 12.9185 155.464 11.6712C155.464 10.424 155.699 9.34963 156.168 8.44816C156.637 7.54669 157.278 6.85721 158.086 6.37972C158.895 5.90223 159.807 5.66348 160.824 5.66348C161.871 5.66348 162.765 5.894 163.503 6.35708C164.242 6.82016 164.812 7.4623 165.214 8.28762C165.615 9.11088 165.815 10.0638 165.815 11.1423C165.815 11.2802 165.811 11.416 165.802 11.5457C165.794 11.6774 165.784 11.7968 165.767 11.9038H156.178V10.8644H165.259L164.681 11.027C164.664 9.70157 164.314 8.6478 163.629 7.86159C162.944 7.07537 161.999 6.68227 160.799 6.68227C159.968 6.68227 159.235 6.87779 158.603 7.2709C157.971 7.66401 157.479 8.23411 157.123 8.98122C156.769 9.72833 156.592 10.6257 156.592 11.6733C156.592 12.7065 156.773 13.5997 157.136 14.353C157.498 15.1083 158.006 15.6826 158.661 16.0736C159.315 16.4667 160.075 16.6622 160.937 16.6622C161.83 16.6622 162.596 16.4688 163.236 16.0839C163.876 15.699 164.372 15.168 164.726 14.4888L165.65 15.0198C165.372 15.5735 165.004 16.0489 164.541 16.442C164.078 16.8351 163.547 17.1397 162.946 17.3538C162.349 17.5719 161.686 17.679 160.964 17.679Z" fill="black"/>
<path d="M52.1597 1.45663C53.3287 1.45663 54.4833 1.45663 55.6606 1.45663C55.6606 3.2925 55.6606 5.1222 55.6606 6.991C55.7738 6.87986 55.852 6.79547 55.9364 6.71932C56.525 6.18626 57.2351 5.92282 58.0048 5.79727C58.9001 5.65114 59.7913 5.64908 60.6639 5.92076C61.9071 6.30769 62.7097 7.16594 63.2037 8.34114C63.5865 9.25084 63.7367 10.2099 63.7738 11.1876C63.817 12.3092 63.7203 13.4145 63.3416 14.4806C62.8682 15.8102 62.047 16.8289 60.6886 17.3394C59.8098 17.6687 58.9001 17.7201 57.9739 17.6152C57.2968 17.539 56.6402 17.3991 56.0372 17.0636C55.6482 16.8495 55.3086 16.5758 55.0205 16.2383C54.7447 15.9151 54.4668 15.9481 54.2651 16.3185C53.8659 17.0574 53.2381 17.4299 52.4025 17.4526C52.3243 17.4546 52.2461 17.4526 52.1576 17.4526C52.1597 12.1199 52.1597 6.7893 52.1597 1.45663ZM60.1967 11.7186C60.137 11.1773 60.1103 10.6751 60.0177 10.1873C59.886 9.48547 59.5196 8.95241 58.7992 8.72807C58.4061 8.60458 58.0007 8.59223 57.5952 8.61899C56.5847 8.68897 55.9878 9.15411 55.7861 10.107C55.5638 11.1567 55.57 12.2208 55.8026 13.2704C55.9734 14.0463 56.4591 14.5444 57.2577 14.6761C57.5993 14.7317 57.9554 14.7461 58.2991 14.7193C59.215 14.6494 59.781 14.1801 59.9847 13.2828C60.1021 12.7579 60.1309 12.2166 60.1967 11.7186Z" fill="black"/>
<path d="M72.6156 10.2984C72.6197 9.85182 72.5765 9.42989 72.3624 9.04502C72.1669 8.68896 71.8541 8.47903 71.4671 8.37612C70.9588 8.24028 70.4401 8.22794 69.9256 8.32879C69.1456 8.48315 68.773 8.92153 68.7216 9.71391C68.7195 9.75919 68.7175 9.80242 68.7133 9.8621C67.569 9.8621 66.4288 9.8621 65.2515 9.8621C65.2803 9.52868 65.2927 9.19732 65.338 8.87214C65.4615 7.98302 65.8072 7.20915 66.5461 6.65139C67.0174 6.29533 67.5546 6.08335 68.1227 5.94957C69.1847 5.69641 70.2652 5.67583 71.3498 5.73346C72.0434 5.77051 72.7267 5.87136 73.3936 6.07717C74.9022 6.54437 75.7707 7.56727 76.0177 9.11088C76.1 9.61924 76.1494 10.14 76.1515 10.6545C76.1659 12.8732 76.1576 15.0919 76.1576 17.3085C76.1576 17.3517 76.1576 17.397 76.1576 17.4382C75.3879 17.5822 74.5029 17.1438 74.0954 16.4255C73.8114 15.9254 73.6097 15.9048 73.2248 16.3329C72.6156 17.0101 71.8438 17.3929 70.9608 17.5452C69.5922 17.7798 68.242 17.7119 66.9413 17.1891C66.0131 16.8166 65.2927 16.2012 64.9922 15.2153C64.6917 14.2254 64.7185 13.2457 65.2989 12.3442C65.6611 11.7824 66.2127 11.4551 66.8198 11.2143C67.5525 10.922 68.3202 10.7697 69.0982 10.6792C70.2631 10.5433 71.4301 10.426 72.6156 10.2984ZM72.6197 12.6241C72.5333 12.6303 72.4736 12.6324 72.4118 12.6385C71.6627 12.727 70.9135 12.8114 70.1643 12.9061C69.7568 12.9576 69.3514 13.0275 68.985 13.2333C68.7545 13.363 68.5878 13.54 68.5343 13.8117C68.4355 14.3077 68.7175 14.7811 69.2464 14.9931C69.6621 15.1577 70.1005 15.1886 70.543 15.166C71.0452 15.1392 71.5083 14.991 71.8788 14.6349C72.4406 14.0916 72.5888 13.3939 72.6197 12.6241Z" fill="black"/>
<path d="M28.7441 5.94546C29.0137 5.94546 29.2771 5.93722 29.5385 5.94751C30.1519 5.97221 30.5635 5.50501 30.5388 4.94931C30.512 4.35862 30.5326 3.76794 30.5326 3.17725C30.5326 3.1155 30.5326 3.05581 30.5326 2.98172C31.7099 2.98172 32.8727 2.98172 34.0562 2.98172C34.0562 3.95728 34.0562 4.92873 34.0562 5.91458C35.0441 5.91458 36.0114 5.91458 36.989 5.91458C36.989 6.86133 36.989 7.79367 36.989 8.74454C36.0443 8.74454 35.1058 8.74454 34.1467 8.74454C34.1467 8.82275 34.1467 8.88243 34.1467 8.94212C34.1467 10.4405 34.1467 11.9367 34.1467 13.4351C34.1467 14.1945 34.474 14.5732 35.2272 14.6967C35.7541 14.7831 36.2831 14.7584 36.812 14.7152C36.8676 14.7111 36.9211 14.7049 36.989 14.7008C36.9932 14.7667 36.9993 14.8202 36.9993 14.8758C36.9993 15.7093 36.9952 16.5429 37.0034 17.3744C37.0055 17.5225 36.9623 17.5678 36.8141 17.5678C35.892 17.5637 34.9659 17.5987 34.0459 17.5534C33.5293 17.5267 33.0086 17.4093 32.5105 17.2612C31.467 16.9524 30.8557 16.2238 30.6705 15.1618C30.5882 14.6885 30.545 14.2007 30.5409 13.7191C30.5244 12.1364 30.5347 10.5557 30.5347 8.97299C30.5347 8.90507 30.5347 8.83921 30.5347 8.75483C29.9378 8.75483 29.3471 8.75483 28.7441 8.75483C28.7441 7.81837 28.7441 6.90044 28.7441 5.94546Z" fill="black"/>
<path d="M81.7003 17.4546C80.5209 17.4546 79.356 17.4546 78.1788 17.4546C78.1788 12.124 78.1788 6.80165 78.1788 1.46487C79.3478 1.46487 80.5168 1.46487 81.7003 1.46487C81.7003 6.78725 81.7003 12.1158 81.7003 17.4546Z" fill="black"/>
<path d="M45.2463 8.7713C44.8265 8.78982 44.4231 8.7713 44.03 8.83099C42.9968 8.99152 42.4164 9.59455 42.2682 10.6339C42.2229 10.9447 42.2003 11.2617 42.1982 11.5745C42.192 13.4598 42.1941 15.345 42.1941 17.2323C42.1941 17.3003 42.1941 17.3682 42.1941 17.4485C41.0148 17.4485 39.8416 17.4485 38.652 17.4485C38.652 17.3826 38.652 17.3229 38.652 17.2612C38.652 13.54 38.652 9.82095 38.652 6.09982C38.652 5.88577 38.652 5.88371 38.8764 5.88577C39.7531 5.88783 40.3932 6.28094 40.8007 7.05274C40.9654 7.36352 41.2618 7.40057 41.4964 7.13919C42.3896 6.14922 43.4969 5.6532 44.8368 5.7026C44.9211 5.70466 45.0076 5.7026 45.0899 5.69025C45.201 5.67378 45.2525 5.71906 45.2525 5.82403C45.2525 6.80371 45.2504 7.78339 45.2484 8.76101C45.2484 8.7713 45.2422 8.77953 45.2463 8.7713Z" fill="black"/>
<path d="M49.9718 5.92075C49.9718 9.76948 49.9718 13.6038 49.9718 17.4484C48.7925 17.4484 47.6173 17.4484 46.4277 17.4484C46.4277 13.61 46.4277 9.76948 46.4277 5.92075C47.607 5.92075 48.7822 5.92075 49.9718 5.92075Z" fill="black"/>
<path d="M48.1504 4.64677C47.9157 4.62207 47.6441 4.6159 47.3806 4.56444C46.7179 4.43684 46.4092 4.11371 46.2857 3.45305C46.2054 3.02289 46.2137 2.59068 46.3001 2.16259C46.4154 1.59454 46.7653 1.25494 47.3354 1.14792C47.8664 1.04707 48.4015 1.04707 48.9325 1.12528C49.6034 1.22407 49.9307 1.55337 50.0542 2.22433C50.1324 2.64831 50.1324 3.07435 50.05 3.49832C49.9224 4.15487 49.5438 4.50887 48.8769 4.5912C48.6485 4.61796 48.4159 4.62619 48.1504 4.64677Z" fill="black"/>
<defs>
<linearGradient id="paint0_linear_40_494" x1="5.99303" y1="1.91952" x2="19.0231" y2="21.0881" gradientUnits="userSpaceOnUse">
<stop offset="0.1824" stop-color="#FFE500"/>
<stop offset="0.9847" stop-color="#2FDFDA"/>
</linearGradient>
</defs>
</svg>
