<?xml version="1.0" encoding="utf-8"?>
<svg version="1.1" id="Layer_1" xmlns="http://www.w3.org/2000/svg" xmlns:xlink="http://www.w3.org/1999/xlink" x="0px"
     y="0px"
     viewBox="0 0 500 500" style="enable-background:new 0 0 500 500;" xml:space="preserve">
<style type="text/css">
	.st0{fill-rule:evenodd;clip-rule:evenodd;}
</style>
  <path class="st0" d="M490.6,56.5c12.8-13.2,12.4-34.3-0.8-47.1c-12.9-12.5-33.4-12.5-46.3,0L250.4,202.5L57.3,9.4
	C44.1-3.4,23-3.1,10.2,10.2c-12.5,12.9-12.5,33.4,0,46.3l193.1,193.1L10.2,442.7c-13.2,12.8-13.6,33.9-0.8,47.1
	c12.8,13.2,33.9,13.6,47.1,0.8c0.3-0.3,0.6-0.5,0.8-0.8l193.1-193.1l193.1,193.1c13.2,12.8,34.3,12.4,47.1-0.8
	c12.5-12.9,12.5-33.4,0-46.3L297.5,249.6L490.6,56.5z" fill="#ffffff"/>
</svg>
