<svg width="8" height="12" viewBox="0 0 8 12" fill="none" xmlns="http://www.w3.org/2000/svg">
<path fill-rule="evenodd" clip-rule="evenodd" d="M0.75149 11.6483C0.526525 11.4233 0.400146 11.1181 0.400146 10.7999C0.400146 10.4817 0.526525 10.1765 0.75149 9.9515L4.70309 5.9999L0.75149 2.0483C0.532901 1.82198 0.411947 1.51886 0.414681 1.20422C0.417415 0.889585 0.543618 0.58861 0.766108 0.366121C0.988598 0.143631 1.28957 0.0174279 1.60421 0.0146938C1.91885 0.0119597 2.22197 0.132913 2.44829 0.351503L7.24829 5.1515C7.47325 5.37654 7.59963 5.68171 7.59963 5.9999C7.59963 6.3181 7.47325 6.62327 7.24829 6.8483L2.44829 11.6483C2.22326 11.8733 1.91809 11.9996 1.59989 11.9996C1.28169 11.9996 0.976524 11.8733 0.75149 11.6483Z" fill="currentColor"/>
</svg>
