<svg width="120" height="120" viewBox="0 0 120 120" fill="none" xmlns="http://www.w3.org/2000/svg">
<g clip-path="url(#clip0_1771_126682)">
<path d="M120 60C120 26.8629 93.1371 0 60 0C26.8629 0 0 26.8629 0 60C0 93.1371 26.8629 120 60 120C93.1371 120 120 93.1371 120 60Z" fill="white"/>
<path d="M28.3335 68.3333C28.3335 36.6667 60.0002 20 60.0002 20C60.0002 20 91.6668 36.6667 91.6668 68.3333C91.6668 85.8167 77.4835 100 60.0002 100C42.5168 100 28.3335 85.8167 28.3335 68.3333Z" fill="#0053FF"/>
<path d="M28.3335 68.3333C28.3335 36.6667 60.0002 20 60.0002 20C60.0002 20 91.6668 36.6667 91.6668 68.3333C91.6668 85.8167 77.4835 100 60.0002 100C42.5168 100 28.3335 85.8167 28.3335 68.3333Z" fill="#0053FF"/>
<path d="M60 20V100C77.4833 100 91.6667 85.8167 91.6667 68.3333C91.6667 36.6667 60 20 60 20Z" fill="#0A0B0D"/>
<path d="M60 93.334C73.8072 93.334 85 82.1411 85 68.334C85 54.5268 73.8072 43.334 60 43.334C46.1928 43.334 35 54.5268 35 68.334C35 82.1411 46.1928 93.334 60 93.334Z" fill="white"/>
<path d="M60 43.334C73.8 43.334 85 54.534 85 68.334C85 82.134 73.8 93.334 60 93.334" fill="#BEC3CE"/>
<path d="M60.0002 88.7493C71.276 88.7493 80.4168 79.6085 80.4168 68.3327C80.4168 57.0568 71.276 47.916 60.0002 47.916C48.7243 47.916 39.5835 57.0568 39.5835 68.3327C39.5835 79.6085 48.7243 88.7493 60.0002 88.7493Z" fill="#0A0B0D"/>
<path d="M70 58.334C66.6 64.5673 66.6 72.1007 70 78.334C63.7667 74.934 56.2333 74.934 50 78.334C53.4 72.1007 53.4 64.5673 50 58.334C56.2333 61.734 63.7667 61.734 70 58.334Z" fill="white"/>
</g>
<defs>
<clipPath id="clip0_1771_126682">
<rect width="120" height="120" fill="white"/>
</clipPath>
</defs>
</svg>
