<?xml version="1.0" encoding="UTF-8"?>
<svg id="Layer_9" data-name="Layer 9" xmlns="http://www.w3.org/2000/svg" viewBox="0 0 72 72">
  <polygon points="68.439 2.732 40.312 23.424 45.542 11.23 68.439 2.732" fill="#e27625" stroke-width="0"/>
  <polygon points="3.561 2.732 31.438 23.617 26.458 11.23 3.561 2.732" fill="#e27625" stroke-width="0"/>
  <polygon points="58.312 50.711 50.829 62.077 66.853 66.464 71.444 50.959 58.312 50.711" fill="#e27625" stroke-width="0"/>
  <polygon points=".584 50.959 5.147 66.464 21.144 62.077 13.688 50.711 .584 50.959" fill="#e27625" stroke-width="0"/>
  <polygon points="20.281 31.508 15.83 38.184 31.688 38.902 31.159 21.934 20.281 31.508" fill="#e27625" stroke-width="0"/>
  <polygon points="51.719 31.508 40.674 21.741 40.312 38.901 56.17 38.184 51.719 31.508" fill="#e27625" stroke-width="0"/>
  <polygon points="21.144 62.077 30.742 57.47 22.479 51.069 21.144 62.077" fill="#e27625" stroke-width="0"/>
  <polygon points="41.258 57.47 50.829 62.077 49.521 51.069 41.258 57.47" fill="#e27625" stroke-width="0"/>
  <polygon points="50.828 62.077 41.258 57.47 42.037 63.65 41.954 66.271 50.828 62.077" fill="#d7c1b3" stroke-width="0"/>
  <polygon points="21.144 62.078 30.046 66.272 29.991 63.651 30.742 57.471 21.144 62.078" fill="#d7c1b3" stroke-width="0"/>
  <polygon points="30.213 46.985 22.257 44.668 27.876 42.102 30.213 46.985" fill="#2f343b" stroke-width="0"/>
  <polygon points="41.786 46.985 44.123 42.102 49.771 44.668 41.786 46.985" fill="#2f343b" stroke-width="0"/>
  <polygon points="21.144 62.077 22.535 50.71 13.688 50.959 21.144 62.077" fill="#cc6228" stroke-width="0"/>
  <polygon points="49.465 50.71 50.828 62.077 58.312 50.959 49.465 50.71" fill="#cc6228" stroke-width="0"/>
  <polygon points="56.17 38.184 40.312 38.902 41.787 46.985 44.123 42.102 49.771 44.668 56.17 38.184" fill="#cc6228" stroke-width="0"/>
  <polygon points="22.257 44.668 27.876 42.102 30.213 46.985 31.688 38.902 15.83 38.184 22.257 44.668" fill="#cc6228" stroke-width="0"/>
  <polygon points="15.83 38.186 22.479 51.07 22.257 44.67 15.83 38.186" fill="#e27625" stroke-width="0"/>
  <polygon points="49.771 44.668 49.521 51.069 56.17 38.184 49.771 44.668" fill="#e27625" stroke-width="0"/>
  <polygon points="31.688 38.901 30.213 46.985 32.077 56.531 32.495 43.95 31.688 38.901" fill="#e27625" stroke-width="0"/>
  <polygon points="40.312 38.901 39.533 43.923 39.923 56.531 41.787 46.985 40.312 38.901" fill="#e27625" stroke-width="0"/>
  <polygon points="41.787 46.986 39.923 56.532 41.258 57.47 49.521 51.069 49.771 44.669 41.787 46.986" fill="#f5841f" stroke-width="0"/>
  <polygon points="22.257 44.669 22.479 51.069 30.742 57.47 32.077 56.532 30.213 46.986 22.257 44.669" fill="#f5841f" stroke-width="0"/>
  <polygon points="41.954 66.27 42.037 63.649 41.314 63.042 30.686 63.042 29.991 63.649 30.046 66.27 21.144 62.077 24.26 64.615 30.575 68.947 41.397 68.947 47.74 64.615 50.828 62.077 41.954 66.27" fill="#c0ad9e" stroke-width="0"/>
  <polygon points="41.258 57.469 39.923 56.531 32.077 56.531 30.742 57.469 29.991 63.649 30.686 63.043 41.314 63.043 42.037 63.649 41.258 57.469" fill="#2f343b" stroke-width="0"/>
  <polygon points="69.635 24.776 72 13.354 68.439 2.732 41.258 22.735 51.719 31.508 66.492 35.784 69.747 32.005 68.328 30.984 70.581 28.942 68.856 27.618 71.11 25.907 69.635 24.776" fill="#763e1a" stroke-width="0"/>
  <polygon points="0 13.356 2.393 24.778 .862 25.909 3.144 27.62 1.419 28.944 3.672 30.986 2.253 32.006 5.508 35.786 20.281 31.51 30.742 22.736 3.561 2.734 0 13.356" fill="#763e1a" stroke-width="0"/>
  <polygon points="66.491 35.785 51.719 31.508 56.17 38.185 49.521 51.069 58.312 50.959 71.443 50.959 66.491 35.785" fill="#f5841f" stroke-width="0"/>
  <polygon points="20.281 31.508 5.508 35.785 .584 50.959 13.688 50.959 22.479 51.069 15.83 38.185 20.281 31.508" fill="#f5841f" stroke-width="0"/>
  <polygon points="40.312 38.902 41.258 22.734 45.542 11.229 26.457 11.229 30.742 22.734 31.688 38.902 32.049 43.978 32.077 56.531 39.922 56.531 39.95 43.978 40.312 38.902" fill="#f5841f" stroke-width="0"/>
</svg>