<?xml version="1.0" encoding="UTF-8"?>
<svg id="Layer_11" data-name="Layer 11" xmlns="http://www.w3.org/2000/svg" viewBox="0 0 72 72">
  <path d="M32.832,59.664c1.992,1.486,4.216,2.631,6.582,3.388,4.929,1.559,10.404,1.319,15.896-1.02.371-.164.79-.181,1.172-.047l7.034,2.345-.791-5.715c-.076-.563.146-1.125.586-1.483,1.443-1.117,2.692-2.464,3.699-3.986,1.433-2.149,2.004-4.758,1.6-7.309-.515-2.707-1.727-5.232-3.517-7.327-.352-.445-.733-.879-1.125-1.307h0c.349-1.266.598-2.558.744-3.863,1.052.97,2.032,2.017,2.931,3.13,2.141,2.545,3.583,5.603,4.185,8.874.535,3.324-.192,6.728-2.04,9.542-1.019,1.563-2.261,2.969-3.687,4.173l.944,7.268c.181.885-.39,1.749-1.275,1.929-.278.057-.565.04-.835-.048l-8.933-2.931c-5.573,2.36-11.8,2.677-17.584.897-3.996-1.295-7.626-3.525-10.586-6.506.381,0,.78.035,1.207.053,1.278.035,2.544,0,3.786-.059h.006ZM42.275,26.295c2.069-.003,3.748,1.671,3.751,3.74s-1.671,3.748-3.74,3.751c-2.069.003-3.748-1.671-3.751-3.74,0-.002,0-.004,0-.006,0-2.066,1.673-3.742,3.74-3.745ZM17.551,26.295c2.069-.003,3.748,1.671,3.751,3.74.003,2.069-1.671,3.748-3.74,3.751-2.069.003-3.748-1.671-3.751-3.74,0-.002,0-.004,0-.006,0-2.066,1.673-3.742,3.74-3.745ZM29.913,26.295c2.069-.003,3.748,1.671,3.751,3.74.003,2.069-1.671,3.748-3.74,3.751-2.069.003-3.748-1.671-3.751-3.74,0-.002,0-.004,0-.006-.003-2.063,1.665-3.739,3.728-3.745h.012ZM30.664,5.651h.029c8.171.27,15.498,3.177,20.744,7.673,5.363,4.595,8.575,10.85,8.358,17.684h0c-.211,6.834-3.798,12.895-9.437,17.174-5.516,4.185-13.024,6.659-21.195,6.448-2.216-.064-4.421-.331-6.588-.797-1.886-.405-3.735-.967-5.527-1.682l-13.382,5.275,4.484-10.662c-2.415-2.087-4.406-4.621-5.861-7.462C.694,36.204-.09,32.754.008,29.273c.217-6.84,3.804-12.907,9.443-17.174,5.521-4.203,13.024-6.67,21.201-6.448h.012ZM30.564,9.373h-.029c-7.303-.205-13.968,1.987-18.839,5.656-4.754,3.634-7.784,8.693-7.954,14.343-.077,2.86.566,5.694,1.87,8.241,1.442,2.778,3.47,5.209,5.943,7.128l1.108.885-2.139,5.082,6.571-2.585.703.299c1.79.762,3.649,1.351,5.551,1.758,1.952.417,3.937.658,5.932.721,7.309.211,13.98-1.969,18.85-5.662,4.754-3.611,7.784-8.669,7.954-14.319h0c.193-5.668-2.55-10.885-7.075-14.765-4.636-3.974-11.137-6.541-18.434-6.764l-.012-.018Z" fill="#fff" stroke-width="0"/>
</svg>