<svg xmlns="http://www.w3.org/2000/svg" viewBox="300.83 301.83 1399.99 1397.98"><g id="Layer_1" data-name="Layer 1"><path id="Path_7213" data-name="Path 7213" d="M1001.35,1418.75h-1.41c-230.61.13-417.67-186.71-417.8-417.32s186.72-417.67,417.33-417.8h0c230.49-.17,417.48,186.54,417.66,417a417.5,417.5,0,0,1-21.54,132.67l187.66,252c212.39-322.26,123.32-755.68-199-968.07S628.61,293.92,416.23,616.18s-123.32,755.69,198.94,968.08a698.87,698.87,0,0,0,577.89,88c-7.21-7.65-191.67-253.77-191.67-253.77" fill="#fff"></path><path id="Path_7215" data-name="Path 7215" d="M1331.22,1201.75h0l-8.54-11.49c-2.13-2.65-4.87-5.81-7.81-9.14a277.6,277.6,0,0,0-21.36-21.35c-3.33-3-6.87-6.07-10.63-9.14q-2.87-2.36-5.9-4.74l-6.1-4.66q-6.36-4.7-13.41-9.39c-55.36-36.18-114.78-53.94-186.38-53.94H888.72s300.63,402.35,374.93,503.6a249.62,249.62,0,0,0,28.2,32.53c1.34,1.28,2.71,2.57,4.14,3.87q5,4.49,10.63,9.18l5.9,4.74,6.1,4.66q6.38,4.69,13.42,9.39c55.36,36.18,117.52,53.94,186.42,53.94h182.36Z" fill="#fff"></path></g></svg>