<svg id="sAVAX_Token_White_SVG" data-name="sAVAX Token White SVG" xmlns="http://www.w3.org/2000/svg" width="26" height="26" viewBox="0 0 26 26">
  <path id="Path_7371" data-name="Path 7371" d="M13,0A13,13,0,1,0,26,13,13,13,0,0,0,13,0Zm2.935,18.093v.338c0,.047-.008.094-.008.138v.023c0,.039-.008.078-.013.117a.077.077,0,0,0-.005.034c-.005.044-.013.086-.018.127l-.005.029c-.005.036-.013.07-.021.1l-.005.029c-.008.039-.018.078-.029.117a.137.137,0,0,0-.008.031c-.008.034-.018.065-.029.1l-.008.023c-.013.036-.023.073-.036.109l-.01.029c-.01.031-.023.065-.034.1l0,.016c-.013.034-.029.068-.042.109l-.008.021h-.1a1.311,1.311,0,0,1-.564-.112.854.854,0,0,1-.2-.13.69.69,0,0,1-.221-.382.9.9,0,0,1-.016-.117.783.783,0,0,1,.005-.156,1.162,1.162,0,0,1,.091-.338,1.9,1.9,0,0,1,.086-.179l.933-1.609.016.044c.021.065.042.127.06.19l.01.034c.016.055.031.109.044.161a.217.217,0,0,1,.01.039c.016.057.029.114.042.174a.207.207,0,0,1,.008.039c.01.052.021.1.029.151l.005.031c.01.057.018.112.023.166a.114.114,0,0,1,.005.042c.005.049.01.1.016.146V17.9c.005.052.01.1.01.156A.084.084,0,0,0,15.935,18.093Zm.2-9.043c-.008.07-.018.138-.031.208a2.757,2.757,0,0,1-.112.406c-.023.065-.052.133-.081.2-.01.021-.018.042-.029.062l-.606,1.04c-.075-.062-.153-.122-.231-.182a3.159,3.159,0,0,1-.7-4.168c-2.5.572-3.245,3.45-1.945,5.582a3.284,3.284,0,0,1,.541,2.709,1.422,1.422,0,0,1-.146.364h0l-.047.081a1.325,1.325,0,0,1-.242.309,1.654,1.654,0,0,1-1.329.432c-1.75-.125-1.5-2.8-1.5-2.8S8,16.115,9.136,18.444A4.6,4.6,0,0,0,9.8,19.461c-.039.018-.081.034-.122.049l-.044.016-.086.029-.044.013c-.039.01-.078.023-.117.031H9.373l-.133.029-.042.008-.1.016-.042.005a1.235,1.235,0,0,1-.138.013H4.69a1.6,1.6,0,0,1-.224-.031.984.984,0,0,1-.356-.151.643.643,0,0,1-.07-.055c-.018-.016-.034-.031-.052-.049a.567.567,0,0,1-.086-.109c-.013-.021-.026-.044-.034-.06a.31.31,0,0,1-.021-.052.753.753,0,0,1-.031-.109.9.9,0,0,1-.016-.117v-.06a1.052,1.052,0,0,1,.01-.127,1.392,1.392,0,0,1,.182-.489l8.177-14.4c.029-.049.057-.094.086-.138a1.272,1.272,0,0,1,.19-.218,1.017,1.017,0,0,1,.205-.146.735.735,0,0,1,.325-.083.672.672,0,0,1,.325.083.7.7,0,0,1,.1.065,1.1,1.1,0,0,1,.2.182,1.731,1.731,0,0,1,.179.255l.624,1.126,1.474,2.59c.01.021.018.042.029.062.031.073.06.146.086.221s.049.151.068.226a1.46,1.46,0,0,1,.034.153c.013.068.023.138.031.208a2.89,2.89,0,0,1,.018.3A1.682,1.682,0,0,1,16.133,9.051Zm6.055,10.007a.861.861,0,0,1-.031.109.881.881,0,0,1-.047.1.711.711,0,0,1-.143.174.81.81,0,0,1-.146.1l-.057.029a1.346,1.346,0,0,1-.572.112H16.658l.026-.021.1-.086.062-.055.1-.086L17,19.38l.1-.1.052-.052c.039-.044.083-.091.125-.135l.023-.026c.049-.057.1-.114.143-.174l.039-.049c.034-.042.065-.086.1-.13a.644.644,0,0,1,.049-.068c.026-.039.055-.078.081-.117s.034-.052.049-.078.057-.088.073-.12.031-.06.047-.086.044-.081.065-.122.029-.057.044-.086c.021-.044.042-.086.06-.13s.026-.057.036-.086c.021-.049.039-.1.057-.151.01-.026.018-.049.029-.075.026-.075.049-.153.07-.231a5,5,0,0,0-.733-3.882l.078-.133a1.547,1.547,0,0,1,.278-.356.943.943,0,0,1,.239-.161.865.865,0,0,1,.164-.055.6.6,0,0,1,.166-.01.789.789,0,0,1,.109.016.768.768,0,0,1,.247.1c.021.013.039.026.06.042s.065.052.1.081a1.555,1.555,0,0,1,.182.211,1.123,1.123,0,0,1,.086.13l2.805,4.924a1.709,1.709,0,0,1,.114.242c.01.026.018.052.026.078a.981.981,0,0,1,.036.151.759.759,0,0,1,.008.153A.747.747,0,0,1,22.188,19.058Z" fill="#fff"/>
</svg>
