<svg id="chaos-labs" xmlns="http://www.w3.org/2000/svg" width="25.334" height="28.208" viewBox="0 0 25.334 28.208">
  <path id="Path_7169" data-name="Path 7169" d="M22.386,22c-.117.117-.235.117-.235.235l-3.284,1.877L6.2,16.723V10.389L18.867,3l3.284,1.877c.117.117.235.117.352.235l-9.031,5.278h0L9.836,12.5v2.111l3.636,2.111V14.612L24.263,8.278v4.105l-7.272,4.222v2.228L22.386,22Z" transform="translate(1.072 0.548)" fill="#fff"/>
  <path id="Path_7170" data-name="Path 7170" d="M16.3,1.412,14.778.591a4.13,4.13,0,0,0-4.34,0L2.111,5.4A4.482,4.482,0,0,0,0,9.153v9.735a4.482,4.482,0,0,0,2.111,3.753l8.445,4.926a4.13,4.13,0,0,0,4.34,0l1.525-.821L3.636,19.357V8.8h0Z" transform="translate(0 0.025)" fill="#fff"/>
</svg>
