<?xml version="1.0" encoding="utf-8"?>
<!-- Generator: Adobe Illustrator 28.0.0, SVG Export Plug-In . SVG Version: 6.00 Build 0)  -->
<svg version="1.1" id="Layer_1" xmlns="http://www.w3.org/2000/svg" xmlns:xlink="http://www.w3.org/1999/xlink" x="0px" y="0px"
	 viewBox="0 0 44.1 44" style="enable-background:new 0 0 44.1 44;" xml:space="preserve">
<style type="text/css">
	.st0{fill-rule:evenodd;clip-rule:evenodd;fill:#C8C8C8;}
	.st1{fill-rule:evenodd;clip-rule:evenodd;fill:#F1F1F1;}
	.st2{fill-rule:evenodd;clip-rule:evenodd;fill:#B0B0B0;}
	.st3{fill-rule:evenodd;clip-rule:evenodd;fill:#FFFFFF;}
</style>
<g>
	<path class="st0" d="M22,6.3c0.8,0.3,2.8,1.1,3.6,1.5c1.5,0.7,3,1.4,4.5,2c0.6,0.3,1.3,0.5,2,0.6c1.8,0.4,6.4,1,6.5-1.8
		c0-0.4-0.1-0.9-0.4-1.2C37.1,5.7,34.6,4,32.9,3c-0.6-0.3-1.2-0.7-1.8-0.9C30.9,2,30.8,2,30.6,1.9c-1.4-0.4-2.9-0.8-4.4-1.1
		c-1.2-0.3-2.3-0.5-3.5-0.6c-0.4,0-0.7,0-1.1,0c-0.2,0-0.3,0-0.5,0c-3.6,0.1-7.1,1.2-10.2,3C9.6,3.9,8.3,4.9,7.1,6
		C6.9,6.2,6.6,6.3,6.4,6.5C10.7,4.2,18,2.9,22,6.3z"/>
	<path class="st1" d="M22.1,6.3c-0.3-0.2-0.6-0.3-1-0.4C16.5,4.2,12.5,3.3,8,5.7L6.4,6.5C6.3,6.6,6.2,6.7,6.1,6.8
		C5.8,7.1,5.6,7.4,5.5,7.7c-0.1,0.4-0.1,0.7,0,1.1c0.8,2.9,5.3,1.8,7.2,1.3C15.4,9.5,19.4,7.5,22.1,6.3z"/>
	<path class="st2" d="M8.4,4.8C17.9-2.5,27.1,0.3,31.1,2L22,6.3C18.7,5,14.8,4,11.3,4.5c-1.1,0.2-2.2,0.6-3.2,1.1
		c-0.7,0.3-1.4,0.7-2,1.2C6,6.8,6.2,6.6,6.2,6.6C6.9,6,7.6,5.4,8.4,4.8L8.4,4.8z"/>
	<path class="st0" d="M22,37.7c-0.8-0.3-2.8-1.1-3.6-1.5c-1.5-0.7-3-1.4-4.5-2c-0.6-0.3-1.3-0.5-2-0.6c-1.8-0.4-6.4-1-6.5,1.8
		c0,0.4,0.1,0.9,0.4,1.2c1.1,1.7,3.6,3.4,5.3,4.4c0.6,0.3,1.2,0.7,1.8,0.9c0.2,0.1,0.3,0.1,0.5,0.2c1.4,0.4,2.9,0.8,4.4,1.1
		c1.2,0.3,2.3,0.5,3.5,0.6c0.4,0,0.7,0,1.1,0c0.2,0,0.4,0,0.5,0c3.6-0.1,7.1-1.2,10.2-3c1.3-0.9,2.6-1.8,3.8-2.9l0.7-0.6
		C33.4,39.8,26.1,41,22,37.7z"/>
	<path class="st1" d="M22,37.7c0.3,0.2,0.6,0.3,1,0.4c4.6,1.7,8.6,2.6,13.1,0.2l1.5-0.9c0.1-0.1,0.2-0.2,0.3-0.3
		c0.3-0.3,0.4-0.6,0.5-0.9c0.1-0.4,0.1-0.7,0-1.1c-0.8-2.9-5.3-1.8-7.2-1.3C28.6,34.5,24.7,36.5,22,37.7z"/>
	<path class="st2" d="M35.7,39.2C26.2,46.5,17,43.7,13,42l9.1-4.3c3.3,1.3,7.2,2.3,10.7,1.8c1.1-0.2,2.2-0.6,3.1-1.1
		c0.7-0.3,1.4-0.7,2-1.2c0.1-0.1-0.1,0.1-0.1,0.1C37.1,37.9,36.4,38.6,35.7,39.2L35.7,39.2z"/>
	<path class="st2" d="M22,26.5l0.3,0.1c0.1-0.2,7.5-2.7,8.1-2.9c1.4-0.5,2.9-0.9,4.4-1.1l2.3-0.3c1-0.1,1.3-0.2,2.5,0
		c3.5,0.7,3.6,2.6,4,3.2c0,0.1,0.1,0.1,0.1,0.2l0,0c0-0.6,0.2-1.2,0.2-1.8c0.2-3.3,0.3-8.4-3.4-9.9c-4.5-1.7-13.4,1.5-18.6,3.6
		L22,26.5z"/>
	<path class="st3" d="M22,26.5c5.7,1.4,12.7,5.8,18.6,3.5c0.9-0.4,1.7-1,2.2-1.8c0.6-0.8,0.9-1.7,1-2.7c0.1-1.3-0.7-2.7-4.1-3.4
		c-2.4-0.5-7,0.7-9.3,1.4C29.8,23.9,22.2,26.3,22,26.5z"/>
	<path class="st2" d="M22,17.5l-0.2-0.1c-0.1,0.2-7.5,2.7-8.1,2.9c-1.4,0.5-2.9,0.9-4.4,1.1L7,21.7c-0.7,0.1-1.3,0.1-2,0
		c-0.2,0-0.3,0-0.5-0.1c-3.5-0.7-3.6-2.6-4-3.2c0,0-0.1-0.1-0.1-0.2l0,0c0,0.6-0.2,1.2-0.2,1.8c-0.2,3.3-0.3,8.4,3.4,9.9
		c4.5,1.7,13.4-1.5,18.6-3.6L22,17.5z"/>
	<path class="st3" d="M22,17.5C16.3,16.1,9.3,11.7,3.4,14c-0.9,0.4-1.7,1-2.2,1.8c-0.6,0.8-0.9,1.7-1,2.7c-0.1,1.3,0.7,2.7,4.1,3.4
		c0.1,0,0.3,0.1,0.4,0.1c2.5,0.3,7-0.7,9.1-1.4C14.6,20.2,21.9,17.7,22,17.5z"/>
	<path class="st1" d="M22,26.5c-2.2-1-9.7-3.3-17.1-4.6c-0.5-0.1-0.7-0.2-1.2-0.2c1,0.3,2.1,0.3,3.2,0.2c5.2-0.7,10.2-2.5,15.1-4.3
		c2.4,1.1,10.5,3.6,18.3,4.9c-1-0.3-2.1-0.3-3.2-0.2C32.5,22.9,26.6,24.8,22,26.5C22,26.5,22.1,26.5,22,26.5z"/>
</g>
</svg>
